<svg xmlns="http://www.w3.org/2000/svg" viewBox="0 0 704 704" fill="none" shape-rendering="auto" width="512" height="512"><metadata xmlns:rdf="http://www.w3.org/1999/02/22-rdf-syntax-ns#" xmlns:xsi="http://www.w3.org/2001/XMLSchema-instance" xmlns:dc="http://purl.org/dc/elements/1.1/" xmlns:dcterms="http://purl.org/dc/terms/"><rdf:RDF><rdf:Description><dc:title>Open Peeps</dc:title><dc:creator>Pablo Stanley</dc:creator><dc:source xsi:type="dcterms:URI">https://www.openpeeps.com/</dc:source><dcterms:license xsi:type="dcterms:URI">https://creativecommons.org/publicdomain/zero/1.0/</dcterms:license><dc:rights>Remix of „Open Peeps” (https://www.openpeeps.com/) by „Pablo Stanley”, licensed under „CC0 1.0” (https://creativecommons.org/publicdomain/zero/1.0/)</dc:rights></rdf:Description></rdf:RDF></metadata><mask id="viewboxMask"><rect width="704" height="704" rx="0" ry="0" x="0" y="0" fill="#fff" /></mask><g mask="url(#viewboxMask)"><g fill-rule="evenodd" clip-rule="evenodd"><path d="M705.3 1074a2351.1 2351.1 0 0 1-15.6-101c-1-7.7-2.5-16.4 2.7-22 7.3-8 14-14.8 14.8-26.2.8-10.7-2.8-22.4-5-32.8a809.4 809.4 0 0 0-17.3-64.7c-6.6-21.7-13.9-43.2-21.3-64.6-6.9-20-13.5-40.3-22.5-59.5-17-36.5-46-63.5-81.6-81.6-9-4.5-27-20.5-36.3-24-8.5-3.4-8.5 6.3-16.9 2.6-6.7-2.9-13-6.7-16.7-13.2-4-7-14.3-16.9-15.9-25-3.3-17.4.3-32.2-12-45.3a90 90 0 0 0-41.1-23.8c-33.7-9.3-78.5-2.8-98.8 28.5-9.7 14.9-13 33-26.2 45.1-11.4 10.7-8.8 18-23.6 23.4-.9.3-23.6-4.5-24.4-4.2-16.2-3.5-31.7 6.2-46.5 11.8a325.4 325.4 0 0 0-63 32.3 399.2 399.2 0 0 0-102.3 98.5 482.5 482.5 0 0 0-76.4 161c-1.7 6.4-3.5 13-1.5 19.4 1.7 5.3 5.4 9.2 9.8 12.4 6 4.3 18 7 17.7 15.7-.1 6.6-2.4 13.5-3.5 20-1.3 7.7-2.3 15.5-3.4 23.2-4.8 35.4-8.6 71-10.3 106.6a920 920 0 0 0-.5 106c.1 2.3.8 4.5 2 6.2-1 .4-1.2 2.4.1 2.7l2.7.5a12 12 0 0 0 7 2.4l5.5.2c19.3 4 38.6 7.9 58.1 10.8 23.8 3.5 47.6 6.3 71.5 8.7 49.2 4.8 98 3.2 147.1.6a1877 1877 0 0 1 147.4-2c49.2 1.4 98.4 3.5 147.6 4.4 55 1 110-.5 164.8-5 7.5-.5 12.2-6.5 10.7-14-8.9-44.7-19-89.1-27-134Z" fill="#ffdbb4"/><path d="m201 597.5 1.2-.4c14.5-5.7 29.6-14.8 45.4-11.4.5-.2 10.8 1.9 17.9 3.2l-6.7 7L247 598c40.7 67.1 88.8 100.7 144.3 100.7 55.5 0 97.7-33.6 126.4-100.7l4-1c.4 0 1 .2 1.5.4 9.3 3.6 27.4 19.6 36.3 24.1 35.6 18 64.5 45 81.6 81.6 8.7 18.6 15.2 38 21.8 57.5l.7 2c7.4 21.4 14.7 43 21.3 64.6 6.3 20.4 12 41 16.6 61.8l.7 2.9c2.2 10.4 5.8 22 5 32.8a29 29 0 0 1-3 10.7l-80.4 29 38.4 261.3c-35.1 1.5-70.3 2-105.5 1.3-49.2-.9-98.4-3-147.6-4.3-47.7-1.2-95.3-.7-143 1.7l-12 .6a946.3 946.3 0 0 1-139.5-1l-3.1-.3v-38.3l16.3-212.9-83-15.6-81.3-39.5a21.7 21.7 0 0 1-5.6-8.8c-1.9-6-.5-12 1-18l.5-1.3a492.8 492.8 0 0 1 76.4-161A399.3 399.3 0 0 1 138 629.7c19.8-13 40.9-23.9 63-32.3Z" fill="#ffcf77"/><path d="M232.2 584.6c5.1-.3 10.3.6 15.4 1 .4.1.6.8 0 .9-9 1.9-18 4.5-26.9 7.1l-3.8 1.2c-10 3-19.8 6-29.6 10-19.4 7.9-37.8 18.5-54.8 30.8C67.2 682.8 20 754.3-9.9 828.3a526 526 0 0 0-24.3 77c-.4 1.6-2 5.4-1 7 .7 1.3 3.6 2.1 5 2.9l4.5 2.3 25.2 12.9 2.3 1.1c38 18.6 78.4 34.4 121 35.5l.4-3.7a342 342 0 0 1 9.9-60c.3-1 1.6-.6 1.7.3 3 23.1 2 46.4 1 69.7-1.8 41-4.3 82.2-6.5 123.3-1.2 20.6-2.6 41-3.9 61.7-1.3 20.5-1.7 41.6-4.7 62-.6 4.6-6 7-10 6.6-4.4-.5-7.9-4.5-8-9 0-11.9 1.5-24 2.4-35.8l2.5-33.8c3.1-41.1 6.8-82.2 10.2-123.3a4771 4771 0 0 1 3.8-43.7C76.4 979.8 34.2 963-6.1 943.5c-.6 13.2-2 26.5-3.4 39.6-3.8 36.8-7.1 73.6-9.6 110.5a2254.2 2254.2 0 0 0-4.2 92.7l-.2 7c0 4.4-.5 8.5-4.3 11.7-3.7 3.3-8.9 3.5-12.6 0-5-4.6-4.2-10.9-4-17.1a1675.6 1675.6 0 0 1 1.8-47.2 1321 1321 0 0 1 10.5-109.5l2-14c3.5-26 7.5-52.7 15.5-77.9-3.1-1.5-6.2-3-9.3-4.7-5.5-2.7-11.2-5.4-16.6-8.4-4.2-2.5-7.9-5.8-9-10.8-1.4-5.5.6-11.5 2-16.9v-.4a502 502 0 0 1 26.6-80 523.2 523.2 0 0 1 67.8-117 353.8 353.8 0 0 1 88.7-83.3 239 239 0 0 1 53.8-25.7 142.6 142.6 0 0 1 42.8-7.5Zm90.1-66c6-6.5 18.1.2 15.2 8.8a108.2 108.2 0 0 1-34.7 52A79.4 79.4 0 0 1 247 598l1.7 2.4a321.1 321.1 0 0 0 46.1 52.6c36 31.2 84.8 48 132 36 37.1-9.4 69.8-38.8 79.4-76.2-1.3.6-3 .9-4.8.5-7.7-1.7-15.3-9.8-20.3-15.6-5.3-6.3-9.5-13-12.6-20.7-5.6-14-7.4-32.1.3-45.7 1-1.7 3-.7 3.3 1l.3 2.5c1.5 12.7 3.3 25 9.3 36.6a76 76 0 0 0 18.2 23.1c2.6 2 5.8 3.6 8.1 6l.5.4c.6-5 4.1-7.3 7.6-7.2 3.3.2 7.3 1.6 8.8 2.3l.1.1a341 341 0 0 1 65.1 42 259 259 0 0 1 88.4 129c7.5 25.3 11.8 51.4 16.3 77.4l2.8 16c4.2 23.9 8.9 48.4 18.4 70.7 2.5 5.7.6 11.1-5.5 13.4A1493 1493 0 0 1 688 953c3.7 16 6 32.5 8.7 48.5 6 34.1 13.2 68 19.4 102 3.2 17.5 6.1 35 9.3 52.3l4.7 25.2 2.4 13.6.1.7c.5 2.4 1 4.9.4 7.3-.8 2.7-2.9 4.6-4.8 6.6-1.6 1.6-3.8 1.6-5.7.7l-.7-.3c-3.4-1.6-6-3.2-7.3-7-.7-2.5-1-5.2-1.5-7.7a3535.6 3535.6 0 0 1-7.8-43.6l-1.6-9.1c-5.2-31.4-10.2-62.9-12.8-94.5-1-14-2.3-28.1-3.5-42.2l-.9-10.5c-1.1-13.3-2.5-27-2.7-40.5l-4.5 1.6L657 964c-5.5 2-12.5 6-18.4 5.2-2.9-.3-5-1.2-6.8-2.9 2 28.8 4.8 57.4 8.5 86a1965.7 1965.7 0 0 0 22 135c.6 3.2 1.4 6.4 1.9 9.6.5 3.7-.5 5.9-2.5 9-1.7 2.4-5 3.7-7.8 2-3.6-2.3-5.5-4.3-6.5-8.4-1-3.7-1.6-7.6-2.3-11.4a1654.2 1654.2 0 0 1-11.4-65.2c-7.8-52-12.7-104.4-15.2-156.8a1388 1388 0 0 1-1.4-77.8c0-13.3.5-26.6 1.4-39.9 1-13.4 3-26.5 4.8-39.8 0-.5.7-.5.7 0 .8 14.9 2.1 29.8 2.8 44.7.6 14.3.9 28.5 1.4 42.8.6 18.7 1.5 37.5 2.7 56.2a9.6 9.6 0 0 1 8.5-3.1c4.7-1 9.7-3.4 14.1-5l16.8-5.5 26.4-8.7a679 679 0 0 1-18-80.8l-2-12.3c-4-24.2-8.5-48.5-15.8-72a229.8 229.8 0 0 0-34.8-68.2 370.2 370.2 0 0 0-52.7-55.3C557 627 539.7 614 523 600c.1.9.2 2 0 3-3.5 25.9-17 50-35.8 67.9-37.7 36-93.6 43.4-142 26.5-46.7-16.3-88-55-102.6-102.8-.3-.8.8-1 1.3-.5l2.4 3.3c0-.4.2-.9.7-1a129 129 0 0 0 46.6-29.2 100.2 100.2 0 0 0 21.3-33.3l.4-1c1.7-5 3.2-10.2 7-14.2Z" fill="#000"/></g><g transform="matrix(.99789 0 0 1 156 62)"><path fill-rule="evenodd" clip-rule="evenodd" d="M430.5 316.9c6.2-44.7-7-87.9-24.1-128.7-1-2.5-2.5-4.7-4.4-6.2-48.3-97.5-119.4-106.3-218.5-99.6-3 0-3.1 0-5.4-1-.3-39.6-45.6-60.6-80-47.5-152.6 71-104.6 270.6-74.2 401l32.5 151.3c.3 1.7 1.1 3.2 2.1 4.4l-4.7 1.7c-3.5 1.2-2 6.5 1.6 5.6 3.6-.8 7-2 10.5-3.2 5.3 1.2 9.8-2.3 14-5 49.1-19.5 69.8-83.4 82.4-130.4 51.2 36.1 133.1 63.2 191.7 30.7 55-33 74.7-102 70.8-163 4-1.8 5.6-5.8 5.7-10v-.1Z" fill="#ffdbb4"/><path d="M127.8 30.5c-10-1.2-20.2-.2-29.7 3.4C-53.2 104.2-7.3 301 23.1 431.5l.8 3.4 24.3 113.4 8.2 38c.3 1.6 1.1 3 2.1 4.3l-4.7 1.7c-3.5 1.2-2 6.5 1.6 5.6 3.6-.8 7-2 10.5-3.2 4.8 1 9-1.7 12.9-4.3l1-.8c20-7.8 35-22.9 47-41.2C136 517 158.5 467 158.5 467L149 445 106 384.5s-36-5.5-36-41.3c0-35.7 9.4-33.8 9.4-33.8L72.6 241s20-84 35.1-98.7c15.2-14.7 61.3-48 61.3-48s4.4-25.2 2-37.9a49.7 49.7 0 0 0-5.9-7.7c-9.7-4.2-32.3-15.7-37.3-18.3Z" fill="#c93305"/><path fill-rule="evenodd" clip-rule="evenodd" d="M84 37.6a68.3 68.3 0 0 1 39.3-9.5c7 .2 13.7 2 20.3 4.7 6 2.5 11.4 6 17.4 8.7.3.2 0 .7-.3.6-7-1.4-15.2-.5-22.3.5h-.8c-7 1-14 1.6-21 3.2a48.8 48.8 0 0 0-31.4 20.7 88.3 88.3 0 0 0-10.5 50.6c.5 8.6 2.2 17 4.8 25.2 1.6 5 5.3 9.9 7 15l4-7.2c-6.3-3-8-11.3-8.4-18.9-1-.9-1.6-2.3-1.6-3.5-.1-3.4.7-6.5 2-9.3.8-7.9 2.5-15.8 5.3-23.2C98.8 66 128 39.7 161 42.3c9.1.7 18 4.6 22.7 12.8a25.5 25.5 0 0 1 1.2 21.5c-.8 2.1-1.8 4-3 5.7l10.7-2.6c12.4-3 24.9-5.4 37.6-6.7 17.3-1.7 35 1 50.8 7.9 4.3 1 8.6 2.3 13 3.5 18.8 5.7 38.2 13 53.5 26 7 5.8 12 12.7 16.1 20.3 15.3 13.6 30 29 40.3 46.8 21.2 36.4 26.3 81.4 27.2 122.8a548 548 0 0 1-9.7 113.9c-3.2 17-8.4 32.7-19 46.6a120.2 120.2 0 0 1-45.2 35.9c-35.9 16.6-80.3 19-115.2-1.6-10.5-6.2-1-22.4 9.5-16.3 34.5 19.6 78.5 15.1 111.6-5.7a94 94 0 0 0 33.8-35.6c5.6-10.8 8-23.1 10-35.2l1.2-6.4c6.4-37 9.3-74.9 7.7-112.4-1.5-37.4-7.4-78-28.6-109.8a240.3 240.3 0 0 0-43.6-47.7 159 159 0 0 0-17.9-9.2l-1.3-.5c-3.4-1.5-8.2-3.4-12.7-4.9a302 302 0 0 0-29.6-8.3l3.6 3.3c5.5 5.4 10 11.8 15.2 17.4.6.6-.2 1.6-1 1.2-8-4.1-16.8-6.8-25-10-8-3.2-15.6-6.8-23.4-10.3l-5.8-2.7c-7.6 0-15.2.3-22.8.7 9.2 6.5 17.6 14.2 24.5 22.7.6.7 0 1.8-.9 1.6a312.8 312.8 0 0 1-42.2-15l-6.6-2.7c-4.8-.2-9.7-.4-14.6-.3h-2.3a115.2 115.2 0 0 0-18.8 1.6 90 90 0 0 0-20.2 11h1.6c9.8-.6 19.7.3 29.2 2.8A85.5 85.5 0 0 1 218 156c.3.5-.3 1-.8.8-14.3-9.8-31-14.8-48-17.5-8.2-1.3-16.7-1.7-25-1-7 .5-14 2.9-20.9 1.7l-5.4 7.2 2.8-.2c9.8-.4 19.8.2 29.4 2.5 19.2 4.5 35.2 16 50 28.6.2.3-.2.7-.5.6-15.9-9.2-34.4-12-52.4-13.6-9-.9-18.2-1.2-27.3-.5-4.2.3-8.3 1-12.5 1.4l-1 .1c-3 5.7-5.7 11.5-8.2 17.2 7.5-2 15.6-3 23.4-2.5 15.7 1 31.4 8.2 44 17.5.3.3.1 1-.4.8a81.8 81.8 0 0 0-41.6-3.2c-6.7 1-13.3 2.2-19.8 4.2-3.2 1-6.4 2.1-9.5 3.6l-4.2 2-3 11.4c23.4 1.3 45.4 12.4 64.5 25 .5.3.2 1.2-.3 1a140.2 140.2 0 0 0-36-7.5c-10.6-1-21-.5-31.6-.2-.6 4-1 8-1.3 12l5 1.5a96.6 96.6 0 0 1 41.5 25.5c.4.4 0 1.3-.6 1-9.4-3.8-19.7-6.2-29.7-8.4a474 474 0 0 0-17-3.3c0 9.2.5 18.3 1.7 27.4l.2 1.7c.6 4.7.1 9.1-3 12.3 4.3-2.8 9.1-4.8 14.5-5.5 14-2 27.1 3.7 36 14.6.4.5-.3 1.1-.8.7-8.6-7.7-21.8-9-32.5-5.4a31.9 31.9 0 0 0-20.3 21.3 39.5 39.5 0 0 0 4 31.7 26.3 26.3 0 0 0 14.2 11.6c3.2-1.1 6.5-.6 9.8.9l.4.1h6.1c3.9 0 5.7 4.1 4.1 7.2 1 1.7 1.6 3.6 2.4 5.3l4.6 8.9a35.5 35.5 0 0 1 7.2 12l3.7 5.5c4 5.8 8.4 11.3 13.1 16.6 3 3.2 6.2 6 9.2 9 1 .2 1.9.8 2.1 1.7l.3.9c1 1 1.9 2.2 2.7 3.4a5.8 5.8 0 0 1-.2 7.4c2.6 16.2.8 33.4-2.7 49.2a246.2 246.2 0 0 1-8.4 30c-1.8 5-4 9.8-7 14.2a47.8 47.8 0 0 1-6.1 7.5c-.4 2.6-.9 5.3-1.5 7.9-8.1 30.6-41 39.9-68.6 43.8-5.4.7-10.6-.6-13.5-5.5-.7-1.2-1.2-2.4-1.4-3.7a9.5 9.5 0 0 1-3.4-1.7l-.6 5.8c-.7 4.9-7.2 6.4-8.9 1.2-7-21.6-10.7-44.4-15.4-66.7-4.8-22.2-10-44.2-15-66.4l-6.2-28C-12.8 372.3-27 303-23.5 232.5c2-38.5 9-76.8 24-112.3 12.7-29.6 33.9-62.9 68.2-69l.6.1c4-5.3 9-10 14.7-13.7Zm20.7 372.2c2.8 9.2 4.8 18.6 5.8 28.2 1.8 16 1 32.4.2 48.4-.7 14.8-2.4 29.6-5.3 44a154.4 154.4 0 0 1-17 46.2c3.6-1.2 6.8-2.6 10.2-4.5a30 30 0 0 0 10.2-8.8 36.4 36.4 0 0 0 5-17.4c1.3-16.2 2-32.5 2.7-48.7l.2-3.5c1.3-25.3 3-51.3.5-76.6-3.7-1-7-2.9-10-5.2l-2.5-2Zm-27.6-30.6 2.2 23c2.3 27.4 3.8 55 2.4 82.4a357.5 357.5 0 0 1-8.3 61.8l-.5 2.1c-1.5 6.3-2.5 14-7.2 18.6v1c3.3-5.1 6.4-10.9 8.7-16.2 9.8-23.7 11.6-49.5 13.4-74.7 1.1-15.6 2-31.2 3.2-46.7l.6-7.5c.7-8.7 1.4-17.4 1.3-26a34.9 34.9 0 0 1-4.8-10.4c-4-2-7.8-4.5-11-7.4Zm54 54.2c2 6.6 3.7 13.3 4.8 20 1.9 10.7 3 21.4 3.5 32.2l1-3.8a342 342 0 0 1 8.6-28.3c-5.3-3.8-9.7-9.6-13.6-14.5-1.5-1.8-2.9-3.7-4.2-5.6Zm-76-293.8c-2.1 6.6-4 13.3-5.8 20a325.1 325.1 0 0 0-9 47.7c-7.9 64.2-1.4 128.7 7.1 192.5 3.5 26.4 7.4 52.8 10.7 79.3l.2-7.8c1-56.2-8.5-111.6-12.3-167.4l-.2-3.4a430 430 0 0 1 .3-78.8c1.6-13.4 4.4-26.5 8.2-39.5l2.2-7.6c1.5-5.1 3.1-10.4 5-15.4l-.7-1.5a88.2 88.2 0 0 1-5.8-18ZM61.5 64a271.4 271.4 0 0 0-46 83.1C-7.4 217.8-2.3 293.4 11 365.6c6.2 34 14.2 67.5 21.5 101.3-7.8-60.6-18-121-19.5-182.3-1-33.4.8-67 7-99.8l.3-2c2.7-13.8 6-28.5 12.6-41 3.6-6.8 7.7-13.1 12.4-19.2 2-2.5 4.3-4.6 6.6-6.5-.7-17.4 2-36.3 9.6-52.2Zm32 269.6a45 45 0 0 1 27.2 9.5c6 5-2.5 13.3-8.5 8.5-6.5-5.2-12.3-11.2-19.2-16-.8-.5-.6-2 .5-2Zm-16.2-26a9.2 9.2 0 0 1-7 .7l-.5-.2.6 7c2-2.8 4.3-5.3 7-7.5ZM67.7 167c-.9 7.2-1.4 14.5-1.7 21.8-.3 7-.4 14.1-.5 21.2v3c3.4-14.3 8.1-28.4 14.2-41.9-1 .2-2 .2-3.1 0a17.4 17.4 0 0 1-8.9-4Zm99.6-83.7-12.4 6a187.6 187.6 0 0 0-46.3 28.8l-2.4 2.1a69.3 69.3 0 0 0-.3 7.5A118.4 118.4 0 0 1 165 87c.8-1.2 1.6-2.4 2.2-3.8ZM167 68c-2.3-3-9-2.8-13.2-2.2a57.6 57.6 0 0 0-36 23c2.3-1.3 4.6-2.5 7-3.6l1.6-.8c9-4.2 18.8-8.2 28.6-9.5 4.6-.7 9.5-1.5 14-1-.1-2.3-.8-4.4-2-6Z" fill="#000"/></g><g transform="translate(315 248)"><path fill-rule="evenodd" clip-rule="evenodd" d="M176 239.6c-6.4 0-13.5-2.3-18.4-4.2l-1.2-.5a33.4 33.4 0 0 1-11.6-6.8 13 13 0 0 1-2.7-3.4c-.3-.8-.4-1.5-.1-2.3a40 40 0 0 0 3.3-.4l1.3-.2 4 .3.5.1 3 .4c3 .4 6 .8 9 1 2.2 0 4.5 0 6.8-.2 6-.3 12-.8 16.7 3.4a5 5 0 0 1 1.7 3.9c0 1.7-.8 3.4-1.9 4.8-2.4 3-6.2 4.1-10.4 4.1ZM211 186a15 15 0 0 1-13.8 6.6 82.3 82.3 0 0 1-38.2-12.2 10.6 10.6 0 0 1-4.9-7.8l-.5-5.4-3.1 4.5-1 1.4a175.2 175.2 0 0 0-11.5 19.7 91.4 91.4 0 0 0-4.7 12.5c-2.3 7.3-4.6 14.5-9.6 19.6-.8.8-2 1-3 1-1-.2-1.9-.6-2.3-1.5-6-12.3 2-27 8.6-37.2l.7-1c6-9.3 16-21.5 27.4-23.2l1.3 2 1.8-1.2c3.1-2 7.2-2 10.8-.3l3.6 1.6a99.7 99.7 0 0 0 23.4 7.8 97.9 97.9 0 0 0-3-10.8c-3-7.7-7.6-14.9-12.2-21.7l-.5-.8-2-3c-3.6-5.1-7.5-10.6-7.8-16.1 4.7.3 8.6 3.2 12 5.7 4.8 3.5 9.1 7.4 13.1 11.7 7.7 8.4 14.6 19 17.7 30.1 1.7 6.3 1 13.1-2.3 18ZM87.6 123v-.2c0-6.4 3.7-21 13-21 5.7 0 9.1 10 9.7 20.2v.4c.3 6.4-1.4 20.2-9.8 20.2S87.7 129.4 87.6 123Zm135.2-2v-.2c0-6.4-3.8-21-13-21-5.5 0-9 9.5-9.7 19.4v.8c-.4 6.1 1.2 20.6 9.8 20.6 8.4 0 12.8-13.1 12.9-19.6ZM118.5 79.8a167.8 167.8 0 0 0-33.8 8 437.2 437.2 0 0 0-25 9.5c-3.3 1.3-6.5 2.7-9.8 3.8a93.7 93.7 0 0 1 34.7-27c7.3-3.7 15-6.6 22.8-9l4.3-1.3c6.4-1.9 13.4-3.6 19.3.2a9.5 9.5 0 0 1 4.4 6.2 9 9 0 0 1-1.8 7.3c-1.4 1.9-3.3 3-5.2 3.4a10 10 0 0 1-6.5-1.2H118.5Zm96 1.2a52.4 52.4 0 0 0-18.7-.5c-3 .5-6 1-9.2.4-1.6-.3-3-1.3-4.1-2.6a10.6 10.6 0 0 1-2.4-5.2c-.3-1.8 0-3.5.6-5 .9-1.6 2.2-3 3.9-4.3 5-3.8 13.7-3 19.6-2.1 5.9.7 11.7 2.5 16.9 5.4 5.1 2.9 9.6 6.7 13 11.4 3 4 4.3 8.5 5.8 13.2-6.7-5.6-17-8.9-25.5-10.7Z" fill="#000"/></g><g transform="translate(279 400)"><path fill-rule="evenodd" clip-rule="evenodd" d="M117.7 95.2c8.1-19 25.8-33 46.1-38 15-3.7 30.7-3.6 45.9-2.1 8 .7 16.5 1.4 24 4.3a35.3 35.3 0 0 1 15.6 13 73.2 73.2 0 0 1 11 25.4c-1 5.9-3 10.9-8.5 14.6-5.3 3.6-11.6 5-18 5.6l-1.7-.9c-10-5.6-16.9-19-29.3-17.2-11.1 1.6-18.5 15.6-25 23.8a87 87 0 0 1-59.8-16c-.8-4.2-.9-8.4-.3-12.5Zm157-14.4a78 78 0 0 0-42.9-46c-36-15.6-82.8-4.7-112 20.7-10 8.7-20 21.4-23 35.1a5 5 0 0 0-2.5 1.3c-21-13.2-42.8-26-59.8-44.4A118.3 118.3 0 0 1 8.4 1c-.5-1.5-2.8-1.3-2.7.3v1.1c-.2-.6-1.2-.3-1.3.4-2.8 21-6.4 43.5-3 64.7 1.8 12.6 7.6 22 15.3 32a316.6 316.6 0 0 0 27 30.2c6.1 6 12.5 13 19.9 17.5 8.6 5.2 18.4 9.2 27.6 13.2 9.3 4 18.8 7.8 28.5 11 19.3 6.6 39.3 11.1 59.7 13.1 16.3 1.6 34.9 3.3 50.5-2.8a68.2 68.2 0 0 0 29.3-23.4c8.3-11.1 15-23.8 18.6-37.2 3.7-13.8-2.2-38-3-40.3Z" fill="#000"/></g><g transform="translate(179 343)"></g><g transform="translate(203 303)"></g></g></svg>