<svg xmlns="http://www.w3.org/2000/svg" viewBox="0 0 704 704" fill="none" shape-rendering="auto" width="512" height="512"><metadata xmlns:rdf="http://www.w3.org/1999/02/22-rdf-syntax-ns#" xmlns:xsi="http://www.w3.org/2001/XMLSchema-instance" xmlns:dc="http://purl.org/dc/elements/1.1/" xmlns:dcterms="http://purl.org/dc/terms/"><rdf:RDF><rdf:Description><dc:title>Open Peeps</dc:title><dc:creator>Pablo Stanley</dc:creator><dc:source xsi:type="dcterms:URI">https://www.openpeeps.com/</dc:source><dcterms:license xsi:type="dcterms:URI">https://creativecommons.org/publicdomain/zero/1.0/</dcterms:license><dc:rights>Remix of „Open Peeps” (https://www.openpeeps.com/) by „Pablo Stanley”, licensed under „CC0 1.0” (https://creativecommons.org/publicdomain/zero/1.0/)</dc:rights></rdf:Description></rdf:RDF></metadata><mask id="viewboxMask"><rect width="704" height="704" rx="0" ry="0" x="0" y="0" fill="#fff" /></mask><g mask="url(#viewboxMask)"><g fill-rule="evenodd" clip-rule="evenodd"><path d="M705.3 1074a2351.1 2351.1 0 0 1-15.6-101c-1-7.7-2.5-16.4 2.7-22 7.3-8 14-14.8 14.8-26.2.8-10.7-2.8-22.4-5-32.8a809.4 809.4 0 0 0-17.3-64.7c-6.6-21.7-13.9-43.2-21.3-64.6-6.9-20-13.5-40.3-22.5-59.5-17-36.5-46-63.5-81.6-81.6-9-4.5-27-20.5-36.3-24-8.5-3.4-8.5 6.3-16.9 2.6-6.7-2.9-13-6.7-16.7-13.2-4-7-14.3-16.9-15.9-25-3.3-17.4.3-32.2-12-45.3a90 90 0 0 0-41.1-23.8c-33.7-9.3-78.5-2.8-98.8 28.5-9.7 14.9-13 33-26.2 45.1-11.4 10.7-8.8 18-23.6 23.4-.9.3-23.6-4.5-24.4-4.2-16.2-3.5-31.7 6.2-46.5 11.8a325.4 325.4 0 0 0-63 32.3 399.2 399.2 0 0 0-102.3 98.5 482.5 482.5 0 0 0-76.4 161c-1.7 6.4-3.5 13-1.5 19.4 1.7 5.3 5.4 9.2 9.8 12.4 6 4.3 18 7 17.7 15.7-.1 6.6-2.4 13.5-3.5 20-1.3 7.7-2.3 15.5-3.4 23.2-4.8 35.4-8.6 71-10.3 106.6a920 920 0 0 0-.5 106c.1 2.3.8 4.5 2 6.2-1 .4-1.2 2.4.1 2.7l2.7.5a12 12 0 0 0 7 2.4l5.5.2c19.3 4 38.6 7.9 58.1 10.8 23.8 3.5 47.6 6.3 71.5 8.7 49.2 4.8 98 3.2 147.1.6a1877 1877 0 0 1 147.4-2c49.2 1.4 98.4 3.5 147.6 4.4 55 1 110-.5 164.8-5 7.5-.5 12.2-6.5 10.7-14-8.9-44.7-19-89.1-27-134Z" fill="#edb98a"/><path d="m201 597.5 1.2-.4c14.5-5.7 29.6-14.8 45.4-11.4.5-.2 10.8 1.9 17.9 3.2l-6.7 7L247 598c40.7 67.1 88.8 100.7 144.3 100.7 55.5 0 97.7-33.6 126.4-100.7l4-1c.4 0 1 .2 1.5.4 9.3 3.6 27.4 19.6 36.3 24.1 35.6 18 64.5 45 81.6 81.6 8.7 18.6 15.2 38 21.8 57.5l.7 2c7.4 21.4 14.7 43 21.3 64.6 6.3 20.4 12 41 16.6 61.8l.7 2.9c2.2 10.4 5.8 22 5 32.8a29 29 0 0 1-3 10.7l-80.4 29 38.4 261.3c-35.1 1.5-70.3 2-105.5 1.3-49.2-.9-98.4-3-147.6-4.3-47.7-1.2-95.3-.7-143 1.7l-12 .6a946.3 946.3 0 0 1-139.5-1l-3.1-.3v-38.3l16.3-212.9-83-15.6-81.3-39.5a21.7 21.7 0 0 1-5.6-8.8c-1.9-6-.5-12 1-18l.5-1.3a492.8 492.8 0 0 1 76.4-161A399.3 399.3 0 0 1 138 629.7c19.8-13 40.9-23.9 63-32.3Z" fill="#78e185"/><path d="M232.2 584.6c5.1-.3 10.3.6 15.4 1 .4.1.6.8 0 .9-9 1.9-18 4.5-26.9 7.1l-3.8 1.2c-10 3-19.8 6-29.6 10-19.4 7.9-37.8 18.5-54.8 30.8C67.2 682.8 20 754.3-9.9 828.3a526 526 0 0 0-24.3 77c-.4 1.6-2 5.4-1 7 .7 1.3 3.6 2.1 5 2.9l4.5 2.3 25.2 12.9 2.3 1.1c38 18.6 78.4 34.4 121 35.5l.4-3.7a342 342 0 0 1 9.9-60c.3-1 1.6-.6 1.7.3 3 23.1 2 46.4 1 69.7-1.8 41-4.3 82.2-6.5 123.3-1.2 20.6-2.6 41-3.9 61.7-1.3 20.5-1.7 41.6-4.7 62-.6 4.6-6 7-10 6.6-4.4-.5-7.9-4.5-8-9 0-11.9 1.5-24 2.4-35.8l2.5-33.8c3.1-41.1 6.8-82.2 10.2-123.3a4771 4771 0 0 1 3.8-43.7C76.4 979.8 34.2 963-6.1 943.5c-.6 13.2-2 26.5-3.4 39.6-3.8 36.8-7.1 73.6-9.6 110.5a2254.2 2254.2 0 0 0-4.2 92.7l-.2 7c0 4.4-.5 8.5-4.3 11.7-3.7 3.3-8.9 3.5-12.6 0-5-4.6-4.2-10.9-4-17.1a1675.6 1675.6 0 0 1 1.8-47.2 1321 1321 0 0 1 10.5-109.5l2-14c3.5-26 7.5-52.7 15.5-77.9-3.1-1.5-6.2-3-9.3-4.7-5.5-2.7-11.2-5.4-16.6-8.4-4.2-2.5-7.9-5.8-9-10.8-1.4-5.5.6-11.5 2-16.9v-.4a502 502 0 0 1 26.6-80 523.2 523.2 0 0 1 67.8-117 353.8 353.8 0 0 1 88.7-83.3 239 239 0 0 1 53.8-25.7 142.6 142.6 0 0 1 42.8-7.5Zm90.1-66c6-6.5 18.1.2 15.2 8.8a108.2 108.2 0 0 1-34.7 52A79.4 79.4 0 0 1 247 598l1.7 2.4a321.1 321.1 0 0 0 46.1 52.6c36 31.2 84.8 48 132 36 37.1-9.4 69.8-38.8 79.4-76.2-1.3.6-3 .9-4.8.5-7.7-1.7-15.3-9.8-20.3-15.6-5.3-6.3-9.5-13-12.6-20.7-5.6-14-7.4-32.1.3-45.7 1-1.7 3-.7 3.3 1l.3 2.5c1.5 12.7 3.3 25 9.3 36.6a76 76 0 0 0 18.2 23.1c2.6 2 5.8 3.6 8.1 6l.5.4c.6-5 4.1-7.3 7.6-7.2 3.3.2 7.3 1.6 8.8 2.3l.1.1a341 341 0 0 1 65.1 42 259 259 0 0 1 88.4 129c7.5 25.3 11.8 51.4 16.3 77.4l2.8 16c4.2 23.9 8.9 48.4 18.4 70.7 2.5 5.7.6 11.1-5.5 13.4A1493 1493 0 0 1 688 953c3.7 16 6 32.5 8.7 48.5 6 34.1 13.2 68 19.4 102 3.2 17.5 6.1 35 9.3 52.3l4.7 25.2 2.4 13.6.1.7c.5 2.4 1 4.9.4 7.3-.8 2.7-2.9 4.6-4.8 6.6-1.6 1.6-3.8 1.6-5.7.7l-.7-.3c-3.4-1.6-6-3.2-7.3-7-.7-2.5-1-5.2-1.5-7.7a3535.6 3535.6 0 0 1-7.8-43.6l-1.6-9.1c-5.2-31.4-10.2-62.9-12.8-94.5-1-14-2.3-28.1-3.5-42.2l-.9-10.5c-1.1-13.3-2.5-27-2.7-40.5l-4.5 1.6L657 964c-5.5 2-12.5 6-18.4 5.2-2.9-.3-5-1.2-6.8-2.9 2 28.8 4.8 57.4 8.5 86a1965.7 1965.7 0 0 0 22 135c.6 3.2 1.4 6.4 1.9 9.6.5 3.7-.5 5.9-2.5 9-1.7 2.4-5 3.7-7.8 2-3.6-2.3-5.5-4.3-6.5-8.4-1-3.7-1.6-7.6-2.3-11.4a1654.2 1654.2 0 0 1-11.4-65.2c-7.8-52-12.7-104.4-15.2-156.8a1388 1388 0 0 1-1.4-77.8c0-13.3.5-26.6 1.4-39.9 1-13.4 3-26.5 4.8-39.8 0-.5.7-.5.7 0 .8 14.9 2.1 29.8 2.8 44.7.6 14.3.9 28.5 1.4 42.8.6 18.7 1.5 37.5 2.7 56.2a9.6 9.6 0 0 1 8.5-3.1c4.7-1 9.7-3.4 14.1-5l16.8-5.5 26.4-8.7a679 679 0 0 1-18-80.8l-2-12.3c-4-24.2-8.5-48.5-15.8-72a229.8 229.8 0 0 0-34.8-68.2 370.2 370.2 0 0 0-52.7-55.3C557 627 539.7 614 523 600c.1.9.2 2 0 3-3.5 25.9-17 50-35.8 67.9-37.7 36-93.6 43.4-142 26.5-46.7-16.3-88-55-102.6-102.8-.3-.8.8-1 1.3-.5l2.4 3.3c0-.4.2-.9.7-1a129 129 0 0 0 46.6-29.2 100.2 100.2 0 0 0 21.3-33.3l.4-1c1.7-5 3.2-10.2 7-14.2Z" fill="#000"/></g><g transform="matrix(.99789 0 0 1 156 62)"><g fill-rule="evenodd" clip-rule="evenodd"><path d="M434.8 366.8c-17-76.6-20.2-160.8-64.8-227.6-19.5-27.3-50.8-62.9-87.4-51.6 1.5-16.2 3-32.3 4.3-48.5.7-9.3 4.2-21.6-3.6-28.7C270.3 0 249 16 239 25c-21.7 20.7-30.2 40.8-58.7 54.6C169 71.4 157.7 63 146.2 55c-11.9-8-28.8-21.1-41-6.2-10.4 12.6-3.8 32.5.4 46.4 2 7 4.2 14.8 7 22.1.3 5.6.8 11.1 1.4 16.7-21.1 3.7-42.8 6.9-63 14.3-11 6-10 19.4-2.2 27.5a121.6 121.6 0 0 0 42.5 26.1c-2.9 10.2-10 18.8-18.7 24.4-3 1.9-4.7 4.6-5.3 7.5a59.2 59.2 0 0 1-14.4 5c-6.4 1.3-10 8.7-8.4 14.6 4.6 14.4 20.8 6.2 31.3 5.2.3 10 .4 20.5 5 29.8-24.4 6.4-45.5 29.8-39.9 56 5.1 25.2 32.3 32.9 53.8 38.6 1.6 1 1.6 1.9 2 4.3 3.6 16.3.7 34.2-5 49.6-1.5 4.3.8 9.5 4.2 12 17.5 11.2 23.3-22.7 43.2-1.1-1.5-.2-5.2-2-5 .6 25.9 45.4 102.2 48.2 149 49.3 5.7 2.7 12.1 1.2 18.5-.6 6.2-.3 12.3-.8 18.4-1.4 11.1-2 30.8.4 31.5-15.3 28.8-11.4 53.5-31 70.4-57a67.3 67.3 0 0 0 12.9-56.5Z" fill="#edb98a"/><path d="M97.9 411a68.5 68.5 0 0 0 15 33l-.5.2-.5.3c-4 2-8 3-11.6 0-3.2-2.8-1.8-8.4-1.5-12.2V431l.3-2.9v-1.2c.3-3.8.4-7.6-.6-11.1-.2-.7-.6-1.1-1-1.4 0-1 .2-1.8.3-2.8v-.5ZM72.6 226.2c-2.7 10-4.5 20-5.6 30.3-3 0-6 .4-9-.3-2.1-.5-4-1.3-5.9-2.3-.6-.4-1.5-1.4-2.3-1.8 1.6-1 3.6-4.3 4.9-5.6 2-2 4-4 6.2-5.8 2.8-2.5 9.1-5.7 9.7-9.6 0-.2 0-.4-.2-.5-.6-.3-1-.5-1.6-.5.8-1.4 2-2.6 3.4-3.7l.4-.2Zm56.7-172.4.5.2 2.3 1.2a807 807 0 0 1 43.5 24.3c.9.4 2-.6 1.4-1.4l-1.3-1.9.2.2c1.6 1.2 4.2 3.8-.6 7.3-11.6 8.3-22 18.2-31.8 28.4a239.8 239.8 0 0 0-39.2 53.2 131 131 0 0 0-21.5 33l-5-2.3c1.3-.2 2.5-.7 4-1.6l.4-.2.7-.4c2.3-1.3 3-5 .8-6.8-1.8-1.6-2.6-2.9-5-3.7-2.2-.7-4.4-1-6.6-1.6a45 45 0 0 1-22.2-14.5l-.7-.8-.6-.9c-1.3-1.6-2.8-3.7-2-5.5.8-1.7 4.5-3.7 6.2-4.7l1-.6c17.2-10.6 37.1-12 56.4-16.3.7-.1.5-1.2-.2-1.3-3.6-.3-7.1-.5-10.7-.6l14.7-2.6-.8-8.4c2.2 1.8 5.1 2.4 9.2.3 3.3-1.7 4.4-6 3-9.3-.4-1-1-2-1.8-2.6l-.2-.2L121 103l-5.3-24-.1-.8-.2-.7-1-4.2c-2-7.8-4.1-18.4 2.6-22 3.8-2.1 8.7.8 12.3 2.6Zm149.5-35.2.1.7.4 1.7a150.7 150.7 0 0 1 1 50.3c-.5 4.5-1.8 9-2.1 13.6-1.4 1.7-2.7 3.6-4.1 5.2-3.8 4.2-8.4 7.4-14.2 7.4-11.3.2-20.7-8.6-31.6-10.5h-.7c-1.8-.4-16.1-4.1-14.4-10.3l.1-.3a5 5 0 0 0-1.3-5 8 8 0 0 0-2-1.4c11-19.6 25.9-36.3 46.2-47.3l2.8-1.5 1.5-.8c4.7-2.3 10-4.8 14.8-5.2 2.5-.2 3 1.4 3.5 3.4Z" fill="#4a312c"/><path d="m260.2 4.7 1.6-.8C267.6 1.4 274-1 280.3.4c7.3 1.6 11.5 7.9 13.3 14.7 2.1 8 3 16.4 3.6 24.5.6 8.5.4 17-.2 25.4-.6 7-1.7 15.2-4.3 22l.4-.2c10.4-1 19.9-.4 29.8 3 9.2 3 18 7.4 26 12.9a128 128 0 0 1 40 48.3c19 37.7 23 80.4 28.3 121.6l.1 1.3c2.9 22 6.7 43.8 12.8 65.2l1 3.6c5.6 19.6 9 38.6 4.5 58.9-8.6 39.2-39 68.7-74 85.8a228 228 0 0 1-57 18.9c-20 3.8-41.8 4.4-60.1-6-9-5.1-1-18.3 8-13.8 19 9.2 40.5 6.2 60.1 1 19.6-5 38.8-12 56-22.5 29.8-18 54.8-49 55.7-85.1.4-20.3-8.3-39.7-12.4-59.3-3.7-17.2-6-34.7-8.2-52.3l-1.6-13c-4.6-37.3-10.4-75.7-29.6-108.7a120 120 0 0 0-80-58.6c-1 5.5-7 10.6-11 13.8a30.3 30.3 0 0 1-19.5 7.6c-14-.2-26-11.1-35.6-20.2-1.1-1 0-2.5 1.3-2.3 11.1 1.7 20.7 10.7 32.1 10.6 6 0 10.4-3.2 14.3-7.4 1.4-1.6 2.7-3.5 4-5.2.4-4.6 1.7-9 2.3-13.6.5-4.3 1-8.6 1.2-12.9a150.7 150.7 0 0 0-2.3-37.4l-.4-1.7c-.5-2.3-.8-4.3-3.6-4.1-6.1.5-13 4.2-18.3 7A116.4 116.4 0 0 0 210 70a8 8 0 0 1 2 1.4 5 5 0 0 1 1.3 5c-2.2 6.5-10.1 6.7-15.7 9.2-6 2.8-11.8 6.4-17.2 10.3a252.8 252.8 0 0 0-29.6 26 630.9 630.9 0 0 0-41.3 45.9l-2.8 6.2a237.3 237.3 0 0 0-21.3 84.6c-.6 10 .8 20 .7 30 .9 1.7 1.2 3.6.8 5.5 2.8.8 5.5 2 8 3.6.7.4.3 1.4-.4 1.2-3.3-.8-6.5-1-9.7-.6a9 9 0 0 1-7 3.3h-1.1c-.9 0-1.7-.2-2.5-.4a41.2 41.2 0 0 0-23.8 40 33.3 33.3 0 0 0 17.2 28c4.6 2.5 9.7 3.8 15 4 5 0 11.7-1.5 15.8 1.8.5.3.8.8 1 1.4l.9-3.7c.2-1 1.8-1 2 0l.2 1.4c3.5 19.5 4.7 39.7 18.5 55.4 6.5 7.3 14.3 14 22.2 19.5l1.4 1c3.4 2.3 7 4.6 11.1 5.4 4.5 1 8.3.7 12.4 3.2 2 1.2 3.2 3.7 2.5 6-4.7 14.3-22.8 7.9-32 2.2-5-3.1-10-7-14.6-11.2a36 36 0 0 1-13 4.7c-6.2 1-13-.4-18-4.5a18.1 18.1 0 0 1-6.2-17.2c.4-3.3 1.3-6.6 2.2-9.8l.8-2.6c1.1-3.8 2-7.8 4.2-11.1 1.2-1.7 3.9-1.5 4.5.6 1.3 4.8.7 10.2.4 15.2l-.1 1.2c-.2 3.7-1.8 9.5 1.5 12.3 4 3.4 8.3 1.8 12.5-.5l-1.2-1.6A74.6 74.6 0 0 1 98.2 382c-3.5 4.6-12.8 5.6-17.7 5.3-7.7-.6-15.2-3-21.8-7A47.6 47.6 0 0 1 37 340.4 48.5 48.5 0 0 1 56.5 300c3.4-2.4 7.2-4.3 11-5.5-1.8-7.6-2-16-1.6-24.3a31 31 0 0 1-13.7-1.6l-.7-.2c-6.4-2.3-14.5-7-15.7-14.1-1.5-8.9 9.4-14 15.8-17.5 3-1.7 6-3.2 9.1-4.5l1-.4c2.7-1 5.9-3 8.6-1.4.2 0 .3.3.2.5-.5 3.8-6.8 7.1-9.6 9.5a106 106 0 0 0-6.2 5.9c-1.3 1.3-3.3 4.6-5 5.6.8.4 1.8 1.3 2.4 1.7 1.8 1.1 3.7 1.9 5.8 2.3 3 .8 6 .5 9.1.4 1.3-12.1 3.5-24 7.1-35.6 6-19.6 16-40.2 30.2-55.6a239.8 239.8 0 0 1 39.2-53.2 237.6 237.6 0 0 1 31.7-28.4c5.1-3.7 10.5-7 16.2-9.7l2-.8c3-1.5 7-3.4 10.6-4a98.4 98.4 0 0 1 56.1-64.6ZM71.2 333a49 49 0 0 1 31.2-7.7 58 58 0 0 1 15.9 3.7l2 .8c5 2 10.1 4.3 10.3 10.2 0 2.3-1.7 4.2-3.7 4.9-5 1.8-9.2-2.5-13.3-4.7a59.8 59.8 0 0 0-13.3-5c-.5 0-1-.2-1.4-.3.3.5.4 1 .4 1.6-.1 1.4-.5 2.4-1 3.7 0 .4-.3 2.8-.6 3l.1 2.4c0 2.5-.2 4.5-1.5 6.6-3 5.3-11.8 5.8-14.7 0-3-5.8-.6-11.5 3.8-15.6 1.2-1.2 2.8-2.3 4.6-3.1-6.2-.6-12.4-.3-18.6.5-.6 0-.7-.8-.3-1Zm.5-194.7c12.5-2.1 25.6-2.6 38.3-1.3.6 0 1 1.1.1 1.3C91 142.6 71 144 53.8 154.6l-.8.5c-1.7 1-5.6 3-6.4 5-1 2.1 1.6 5 2.8 6.5a45 45 0 0 0 22.6 15c2.2.7 4.5 1 6.6 1.7 2.5.8 3.3 2 5.1 3.7 2.2 1.9 1.4 5.5-.9 6.8l-.6.4c-3 1.7-4.7 2.2-8.5 1.6a58.1 58.1 0 0 1-23-11.2l-.6-.6c-7.8-6.4-21-20.4-12.3-30.6 7.7-9 22.7-13.1 33.9-15Zm30.8-97.2c12-14.2 29-4.5 41.1 4 13 9 24.3 19.8 33.4 32.8.6.9-.6 1.9-1.4 1.4A807 807 0 0 0 132.1 55l-2.3-1c-3.7-1.9-8.9-5.2-12.8-3-8.3 4.6-3.2 19.7-1.4 27l.1.7 5.3 24 2.4 10.9a7 7 0 0 1 2 2.8c1.4 3.2.3 7.5-3 9.2-9.7 5-13-4.7-14.8-12l-4.5-17.8-2.5-9.9c-3.8-14.8-9.1-31.8 2-44.8Z" fill="#000"/></g></g><g transform="translate(315 248)"><path fill-rule="evenodd" clip-rule="evenodd" d="M171 240.2a40.7 40.7 0 0 1-22.7 0c-6.9-2-13.8-6.3-18.9-12.1a27.4 27.4 0 0 1-7.2-18.2c0-.8.3-1.4.7-2a3.3 3.3 0 0 1 3.9-.8 174.4 174.4 0 0 0 3.7 4.3c6.1 7.7 12.1 13.4 21.4 15.4 5 1.2 10.1.7 14.8-1 5-1.8 9.4-5 13-9.1a7 7 0 0 1 5.2-2.6c2 0 4.1 1 5.7 2.4a8.8 8.8 0 0 1 2.6 5.8c0 1.9-.5 3.8-2.2 5.6a44.3 44.3 0 0 1-20 12.3Zm-.2-95.8c7.6 4.6 19 15.3 11 26.6-9.6 10-23.4-1.4-30.2-6.6-6.3-4-13.3 6.3-7.5 11 49 36.3 69-29.8 30.5-36.4-4.2-.8-5.8 4-3.8 5.4Zm-70.6-20.2a8.4 8.4 0 0 0-8.5-.7 27.5 27.5 0 0 0-9.8 9.8c-2 3.4-3.5 7.4-3.2 11.5 0 1-.3 1.6-.9 2.2-.4.4-1 .7-1.8.8-.6 0-1.3 0-2-.2-1-.4-1.6-1-1.8-1.6a23.8 23.8 0 0 1 1.2-17.6c3.2-7.6 9-14 12.8-16a21.4 21.4 0 0 1 20.7-.1c5.5 3 9 8 12.4 13l2.2 3.2c1.6 2 1.7 4.1 1.1 5.9-.6 2-2.3 3.6-4.3 4.5-2 .8-4.2 1-6.1 0-1.7-.6-3.2-2-4.1-4.3a23.1 23.1 0 0 0-8-10.4Zm123.2 8.6c-1.6.9-3 1.1-4.8.6-1-.3-2-1-2.8-1.7a5.6 5.6 0 0 1-1.5-2.8c-.6-2.7-2-5.2-4.1-6.8a8.2 8.2 0 0 0-6.5-1.7c-2.7.4-5.3 2.2-7 4.2-.6.7-1 1.4-1.5 2.2-.9 1.4-1.7 2.8-3 3.8-.4.4-1 .7-1.7.7l-.8-.1c-2.7-2.7-3.2-4.8-3.1-6.8 0-2 1-4.2 2.2-6.2 3.2-4.7 9.2-8.5 13.2-9.4 5.6-1.2 11 .2 15.5 3.3a22 22 0 0 1 9 13.7c.2 1.4 0 2.8-.4 4a5.6 5.6 0 0 1-2.7 3Zm-111-58.5c-3.3 3.2-7.3 3.7-11.2 4.1a53 53 0 0 0-37 20.4 74.6 74.6 0 0 0-3.2 4 28 28 0 0 1-1.5 2.7c-.5.9-.8 1.1-1 1.3l-1.3.2a2 2 0 0 1-1-.5c-1.7-1.5-2.2-3.8-2.2-6.3 0-3.9 1.5-8 2.8-10.7 3-6 7.2-12.3 12.2-16.8 5.7-5.1 12-9 19.2-11.7a39 39 0 0 1 14.6-3c3.5.2 6.8 1.2 9.6 3.8A8.4 8.4 0 0 1 115 68c0 2.3-.8 4.6-2.5 6.3Zm117.8 29.6c-.2.4-.5.6-.8.7a2 2 0 0 1-2-.3c-.4-.2-.6-.6-.7-1-2.2-9.7-6.4-16.9-15.6-21.5a66 66 0 0 0-14.6-5l-4.4-.7c-4.8-.7-9.5-1.5-12.6-5.3a10.2 10.2 0 0 1-2.2-8c.4-2.5 1.9-4.9 4.6-6.3 6.7-3.5 15 0 21.9 2.9l1.4.6A51 51 0 0 1 223 71.8c4 4.2 7.7 10.4 9.1 16.8 1.3 5.3 1 10.8-1.8 15.3Z" fill="#000"/></g><g transform="translate(279 400)"></g><g transform="translate(179 343)"></g><g transform="translate(203 303)"></g></g></svg>