<svg xmlns="http://www.w3.org/2000/svg" viewBox="0 0 704 704" fill="none" shape-rendering="auto" width="512" height="512"><metadata xmlns:rdf="http://www.w3.org/1999/02/22-rdf-syntax-ns#" xmlns:xsi="http://www.w3.org/2001/XMLSchema-instance" xmlns:dc="http://purl.org/dc/elements/1.1/" xmlns:dcterms="http://purl.org/dc/terms/"><rdf:RDF><rdf:Description><dc:title>Open Peeps</dc:title><dc:creator>Pablo Stanley</dc:creator><dc:source xsi:type="dcterms:URI">https://www.openpeeps.com/</dc:source><dcterms:license xsi:type="dcterms:URI">https://creativecommons.org/publicdomain/zero/1.0/</dcterms:license><dc:rights>Remix of „Open Peeps” (https://www.openpeeps.com/) by „Pablo Stanley”, licensed under „CC0 1.0” (https://creativecommons.org/publicdomain/zero/1.0/)</dc:rights></rdf:Description></rdf:RDF></metadata><mask id="viewboxMask"><rect width="704" height="704" rx="0" ry="0" x="0" y="0" fill="#fff" /></mask><g mask="url(#viewboxMask)"><g fill-rule="evenodd" clip-rule="evenodd"><path d="M705.3 1074a2351.1 2351.1 0 0 1-15.6-101c-1-7.7-2.5-16.4 2.7-22 7.3-8 14-14.8 14.8-26.2.8-10.7-2.8-22.4-5-32.8a809.4 809.4 0 0 0-17.3-64.7c-6.6-21.7-13.9-43.2-21.3-64.6-6.9-20-13.5-40.3-22.5-59.5-17-36.5-46-63.5-81.6-81.6-9-4.5-27-20.5-36.3-24-8.5-3.4-8.5 6.3-16.9 2.6-6.7-2.9-13-6.7-16.7-13.2-4-7-14.3-16.9-15.9-25-3.3-17.4.3-32.2-12-45.3a90 90 0 0 0-41.1-23.8c-33.7-9.3-78.5-2.8-98.8 28.5-9.7 14.9-13 33-26.2 45.1-11.4 10.7-8.8 18-23.6 23.4-.9.3-23.6-4.5-24.4-4.2-16.2-3.5-31.7 6.2-46.5 11.8a325.4 325.4 0 0 0-63 32.3 399.2 399.2 0 0 0-102.3 98.5 482.5 482.5 0 0 0-76.4 161c-1.7 6.4-3.5 13-1.5 19.4 1.7 5.3 5.4 9.2 9.8 12.4 6 4.3 18 7 17.7 15.7-.1 6.6-2.4 13.5-3.5 20-1.3 7.7-2.3 15.5-3.4 23.2-4.8 35.4-8.6 71-10.3 106.6a920 920 0 0 0-.5 106c.1 2.3.8 4.5 2 6.2-1 .4-1.2 2.4.1 2.7l2.7.5a12 12 0 0 0 7 2.4l5.5.2c19.3 4 38.6 7.9 58.1 10.8 23.8 3.5 47.6 6.3 71.5 8.7 49.2 4.8 98 3.2 147.1.6a1877 1877 0 0 1 147.4-2c49.2 1.4 98.4 3.5 147.6 4.4 55 1 110-.5 164.8-5 7.5-.5 12.2-6.5 10.7-14-8.9-44.7-19-89.1-27-134Z" fill="#ae5d29"/><path d="m201 597.5 1.2-.4c14.5-5.7 29.6-14.8 45.4-11.4.5-.2 10.8 1.9 17.9 3.2l-6.7 7L247 598c40.7 67.1 88.8 100.7 144.3 100.7 55.5 0 97.7-33.6 126.4-100.7l4-1c.4 0 1 .2 1.5.4 9.3 3.6 27.4 19.6 36.3 24.1 35.6 18 64.5 45 81.6 81.6 8.7 18.6 15.2 38 21.8 57.5l.7 2c7.4 21.4 14.7 43 21.3 64.6 6.3 20.4 12 41 16.6 61.8l.7 2.9c2.2 10.4 5.8 22 5 32.8a29 29 0 0 1-3 10.7l-80.4 29 38.4 261.3c-35.1 1.5-70.3 2-105.5 1.3-49.2-.9-98.4-3-147.6-4.3-47.7-1.2-95.3-.7-143 1.7l-12 .6a946.3 946.3 0 0 1-139.5-1l-3.1-.3v-38.3l16.3-212.9-83-15.6-81.3-39.5a21.7 21.7 0 0 1-5.6-8.8c-1.9-6-.5-12 1-18l.5-1.3a492.8 492.8 0 0 1 76.4-161A399.3 399.3 0 0 1 138 629.7c19.8-13 40.9-23.9 63-32.3Z" fill="#9ddadb"/><path d="M232.2 584.6c5.1-.3 10.3.6 15.4 1 .4.1.6.8 0 .9-9 1.9-18 4.5-26.9 7.1l-3.8 1.2c-10 3-19.8 6-29.6 10-19.4 7.9-37.8 18.5-54.8 30.8C67.2 682.8 20 754.3-9.9 828.3a526 526 0 0 0-24.3 77c-.4 1.6-2 5.4-1 7 .7 1.3 3.6 2.1 5 2.9l4.5 2.3 25.2 12.9 2.3 1.1c38 18.6 78.4 34.4 121 35.5l.4-3.7a342 342 0 0 1 9.9-60c.3-1 1.6-.6 1.7.3 3 23.1 2 46.4 1 69.7-1.8 41-4.3 82.2-6.5 123.3-1.2 20.6-2.6 41-3.9 61.7-1.3 20.5-1.7 41.6-4.7 62-.6 4.6-6 7-10 6.6-4.4-.5-7.9-4.5-8-9 0-11.9 1.5-24 2.4-35.8l2.5-33.8c3.1-41.1 6.8-82.2 10.2-123.3a4771 4771 0 0 1 3.8-43.7C76.4 979.8 34.2 963-6.1 943.5c-.6 13.2-2 26.5-3.4 39.6-3.8 36.8-7.1 73.6-9.6 110.5a2254.2 2254.2 0 0 0-4.2 92.7l-.2 7c0 4.4-.5 8.5-4.3 11.7-3.7 3.3-8.9 3.5-12.6 0-5-4.6-4.2-10.9-4-17.1a1675.6 1675.6 0 0 1 1.8-47.2 1321 1321 0 0 1 10.5-109.5l2-14c3.5-26 7.5-52.7 15.5-77.9-3.1-1.5-6.2-3-9.3-4.7-5.5-2.7-11.2-5.4-16.6-8.4-4.2-2.5-7.9-5.8-9-10.8-1.4-5.5.6-11.5 2-16.9v-.4a502 502 0 0 1 26.6-80 523.2 523.2 0 0 1 67.8-117 353.8 353.8 0 0 1 88.7-83.3 239 239 0 0 1 53.8-25.7 142.6 142.6 0 0 1 42.8-7.5Zm90.1-66c6-6.5 18.1.2 15.2 8.8a108.2 108.2 0 0 1-34.7 52A79.4 79.4 0 0 1 247 598l1.7 2.4a321.1 321.1 0 0 0 46.1 52.6c36 31.2 84.8 48 132 36 37.1-9.4 69.8-38.8 79.4-76.2-1.3.6-3 .9-4.8.5-7.7-1.7-15.3-9.8-20.3-15.6-5.3-6.3-9.5-13-12.6-20.7-5.6-14-7.4-32.1.3-45.7 1-1.7 3-.7 3.3 1l.3 2.5c1.5 12.7 3.3 25 9.3 36.6a76 76 0 0 0 18.2 23.1c2.6 2 5.8 3.6 8.1 6l.5.4c.6-5 4.1-7.3 7.6-7.2 3.3.2 7.3 1.6 8.8 2.3l.1.1a341 341 0 0 1 65.1 42 259 259 0 0 1 88.4 129c7.5 25.3 11.8 51.4 16.3 77.4l2.8 16c4.2 23.9 8.9 48.4 18.4 70.7 2.5 5.7.6 11.1-5.5 13.4A1493 1493 0 0 1 688 953c3.7 16 6 32.5 8.7 48.5 6 34.1 13.2 68 19.4 102 3.2 17.5 6.1 35 9.3 52.3l4.7 25.2 2.4 13.6.1.7c.5 2.4 1 4.9.4 7.3-.8 2.7-2.9 4.6-4.8 6.6-1.6 1.6-3.8 1.6-5.7.7l-.7-.3c-3.4-1.6-6-3.2-7.3-7-.7-2.5-1-5.2-1.5-7.7a3535.6 3535.6 0 0 1-7.8-43.6l-1.6-9.1c-5.2-31.4-10.2-62.9-12.8-94.5-1-14-2.3-28.1-3.5-42.2l-.9-10.5c-1.1-13.3-2.5-27-2.7-40.5l-4.5 1.6L657 964c-5.5 2-12.5 6-18.4 5.2-2.9-.3-5-1.2-6.8-2.9 2 28.8 4.8 57.4 8.5 86a1965.7 1965.7 0 0 0 22 135c.6 3.2 1.4 6.4 1.9 9.6.5 3.7-.5 5.9-2.5 9-1.7 2.4-5 3.7-7.8 2-3.6-2.3-5.5-4.3-6.5-8.4-1-3.7-1.6-7.6-2.3-11.4a1654.2 1654.2 0 0 1-11.4-65.2c-7.8-52-12.7-104.4-15.2-156.8a1388 1388 0 0 1-1.4-77.8c0-13.3.5-26.6 1.4-39.9 1-13.4 3-26.5 4.8-39.8 0-.5.7-.5.7 0 .8 14.9 2.1 29.8 2.8 44.7.6 14.3.9 28.5 1.4 42.8.6 18.7 1.5 37.5 2.7 56.2a9.6 9.6 0 0 1 8.5-3.1c4.7-1 9.7-3.4 14.1-5l16.8-5.5 26.4-8.7a679 679 0 0 1-18-80.8l-2-12.3c-4-24.2-8.5-48.5-15.8-72a229.8 229.8 0 0 0-34.8-68.2 370.2 370.2 0 0 0-52.7-55.3C557 627 539.7 614 523 600c.1.9.2 2 0 3-3.5 25.9-17 50-35.8 67.9-37.7 36-93.6 43.4-142 26.5-46.7-16.3-88-55-102.6-102.8-.3-.8.8-1 1.3-.5l2.4 3.3c0-.4.2-.9.7-1a129 129 0 0 0 46.6-29.2 100.2 100.2 0 0 0 21.3-33.3l.4-1c1.7-5 3.2-10.2 7-14.2Z" fill="#000"/></g><g transform="matrix(.99789 0 0 1 156 62)"><path fill-rule="evenodd" clip-rule="evenodd" d="M242 75.3c56.8 0 140 37.9 146.2 74.4 7.3 43 23.7 204.6 14.8 257.5-9 52.9-43.6 92-120.4 92-76.8 0-134.2-41.9-147.3-56.3-13.2-14.4-29.1-59.1-29.1-59.1s-42-7.1-42.3-40.7c-.2-33.5 21.2-43.8 21.2-43.8s-11.5-139 12.6-173.5C122 91.3 185.3 75.3 242 75.3Z" fill="#ae5d29"/><g fill="#000"><path d="M413.5 252.3c3 33.8 4.2 68 4.9 101.8.5 32.2-2.3 65.7-20.6 93.2-16 24-40.4 41.5-67.6 50.9a165.8 165.8 0 0 1-48.8 7.8c-8.5.3-17 0-25.3-1l-3.2-.3c-7-.6-14.1-1.2-19.3-6.6-1.6-1.7-1.6-5.1.8-6.2a20 20 0 0 1 12.8-1.7 189.2 189.2 0 0 0 39.6 1.3 141 141 0 0 0 48.4-13 111.4 111.4 0 0 0 54.8-53.3c12.5-27.3 11.8-59 11.3-88.5v-1.2c-.7-32.7-2-65.3-4.8-97.9a994.7 994.7 0 0 0-9.4-72.1l-1.6-7.5-1.3-5.5-2 .2c-4.2 0-8.8-1-11.9-3.9a8.7 8.7 0 0 1-4.5 1.4c-11.1.6-22.3.3-33.5 0a14944.6 14944.6 0 0 0-70.2-.2h-8a1442.7 1442.7 0 0 1-53.2-.4c-13.1-.2-26.4-.4-39.2-2.8-5.3 19-5.1 39.7 6 56.7 3.1 4.7.6 10.3-3.5 13.3A41 41 0 0 1 146 225a284.4 284.4 0 0 1-1.8 4.2 143.9 143.9 0 0 0-10.4 33 99 99 0 0 0 .2 2.3l.2.8.2 1.4.9 4.4c1 4.8 1.6 9.6 2.1 14.4 1 8.8.9 20.2-7.7 25.4-4.6 2.8-10 2.5-15 .7-2.7-1-5-2.5-7.5-4l-1.5-.8c-.8-.5-1.6-1-2.4-1.3-1-.6-2-1-3-1.7l-1.3-1a37.5 37.5 0 0 0-20.7 12.6 40.5 40.5 0 0 0-8.8 31.1c1 10.3 5 22 13 28.8a19.1 19.1 0 0 0 19.1 3.5l3-.4c1.4-.2 2.8-.3 3.9-.8 3-1.2 6.6 2.5 5.4 5.5l-.7 1.9c-.6 1.4-1 2.8-1.9 4a453.6 453.6 0 0 0 27 39.2c6.2 8 13 15 20 22.2l8.7 9c4.2 4.6 6 13.6-1.7 15.6-6.8 1.7-12.1-4.5-16.3-9.5l-1.6-1.9a168.7 168.7 0 0 1-38.7-71.8c-3 2-6.3 3.2-9.9 3.7a32 32 0 0 1-20.3-4c-23.4-13.5-29-50-18.1-73a41.2 41.2 0 0 1 11.3-14.2c-.4-.7-.5-1.5-.3-2.4l1.4-4.7c-.6-.3-1-.8-.9-1.5l1.1-11.4.2-2-.1-6.3c-.2-4.7-.3-9.4-.3-14.2 0-5 .3-10.2.4-15.2l.5-17.5c0-18.9.4-37.8.8-56.6A3012.5 3012.5 0 0 0 75 58.9v-.4l-.3-7c-.8-13.7-1.8-29.2 10.5-37.3a8.7 8.7 0 0 1 8-.6A62.7 62.7 0 0 1 119 4.4C132.3 2.3 145.6 1 159-.3l11.7-1.1c9-1 18.4-1.3 27.4-1l14.2-.3c4.5-.2 9-.4 13.4-.3a480.3 480.3 0 0 1 32.2 1.4l.8-.1c15.8-1.5 31.7-.7 47.6 0 3.8.3 7.6.5 11.5.6 18.8.8 38.6 2.8 55.5 11.8a26 26 0 0 1 5.5 3.9c2.2.3 4.3 1 6.2 2 5.4-1.1 11.5 1.3 12.8 7.6a87.5 87.5 0 0 1 1.4 28.3v.3c2.2 8.7 2 18.2.2 26.7a482.9 482.9 0 0 1 1.3 37.5c.1 5.9.2 11.8-.3 17.6a29.1 29.1 0 0 1-7.6 16.8c-.8 1-2.2 1-3.3.9l-.8-.3c2.1 4.5 3.9 9.2 5.6 13.9l1.1 3a250 250 0 0 1 8.8 27c4.6 18.6 7.6 37.4 9.4 56.4Z"/><path d="m94.8 336.1-3-1.8s-5.5-1.8-4.5.5c.4.8-.6 1.7-1.2 1-2-2-.9-4.3 1-6 3.2-3.1 8-2.4 12-1.7 5.7 1 11 3.5 15.8 6.6 5 3.4 11.3 8 12.3 14.5 1 5.8-5 12.3-11 8.4-3.2-2.1-5.5-5.3-7.8-8.5a45.4 45.4 0 0 0-12.8-12.4l-.8-.6Z"/></g></g><g transform="translate(315 248)"><path fill-rule="evenodd" clip-rule="evenodd" d="M178.9 231a33 33 0 0 1-21.8 1c-6.7-2.2-12.8-7-16.5-13.2a22.4 22.4 0 0 1-2.7-18.2c0-.3.4-.5.7-.6 1.6 1.4 2.5 2.9 3.5 4.3 1.7 2.4 3.3 4.8 5.6 6.8 3.3 3 7.7 5.5 12.2 6.3 4.3.7 8.7 0 12.6-2 2.3-1.3 4.2-3 6.1-4.6 2-1.9 4-3.7 7-4.8 2.2-.8 4.6-.1 6.4 1.3 2 1.5 3.4 3.8 3.3 6.3-.1 3.8-1.8 7-4.2 9.5-3.3 3.6-7.9 6.1-12.2 7.8Zm-8-94.6c7.5 4.6 19 15.3 10.8 26.6-9.5 10-23.3-1.4-30-6.6-6.4-4-13.4 6.3-7.6 11 49 36.3 69-29.8 30.5-36.4-4.2-.8-5.8 4-3.8 5.4ZM91.3 72.8c10.3-.5 19.3 4 29.2 6.2 9 2 18 .8 26.8-1.7 14.3-4 20.2 17.9 6 22.2a71.8 71.8 0 0 1-31.6 1.7c-9.3-1.4-17.2-6-26.1-8.7a61.6 61.6 0 0 0-24.8-.2l-3.1.4c-4.7.6-9.4 1.3-14 2.2-4 .8-8 2.2-12.1 2.4-.5 0-.9-.6-.6-1 4.8-6.5 14-11.7 21.2-15.1l.5-.2a77 77 0 0 1 28.6-8.2Zm-3.8 48.1v-.2c0-6.4 3.7-21 13-21 5.7 0 9.1 10 9.7 20.2v.4c.3 6.4-1.4 20.2-9.8 20.2S87.7 127.4 87.6 121Zm135.2 0v-.2c0-6.4-3.8-21-13-21-5.5 0-9 9.5-9.7 19.4v.8c-.4 6.1 1.2 20.6 9.8 20.6 8.4 0 12.8-13.1 12.9-19.6Zm-.2-55.9h.7c10.7.4 21.8 6.7 24.6 17.4.2.6-.5 1-1 .6-8.7-8.3-20.6-.4-29.4 3.7l-3.3 1.5c-11.4 5.3-24.3 11.6-37 7.6-6-1.9-9.8-8-8-14.3 1.4-5.5 8.1-10.2 14-8.2l.2.1c4.7 1.8 10.5 0 15.4-1.8l4-1.5c6.4-2.4 12.8-5.2 19.8-5Z" fill="#000"/></g><g transform="translate(279 400)"></g><g transform="translate(179 343)"></g><g transform="translate(203 303)"><path fill-rule="evenodd" clip-rule="evenodd" d="M337.8 15c23.5 0 36.9 5 41.8 5.4h.1c2 .2 4 .4 5.8 1 7 2.8 8.2 10.2 4.1 14.9-.3 9.7 1 21-1.2 30.6-2.7 41-21.9 47.8-32.8 50.3-5.5 1.3-12 1.8-17.8.5-10-.4-19.8-3.5-28.2-9a52 52 0 0 1-23.2-32.9c-1.4-6.5-2-13.4-1.3-20l.1-1a32 32 0 0 0-12.7-2.3c-2.2 0-4.3-.1-6.4 0l-6 .9a16 16 0 0 0-6.3 3.5v2.5c-.5 6.3-1.3 12.7-2.6 19-1.9 9-5 17.8-11.4 24.3-2.2 3.3-4.9 6.2-8.2 8.7a62.9 62.9 0 0 1-43 11.3 64.6 64.6 0 0 1-52-36.8l-.2-.7c-2.9-7.6-5.2-17.5-14.4-19.2l-2-.3c-4.2-.8-8-1.9-10.5-6-1-1.8-1.6-3.8-1.8-5.8l-4.3.3c-11.4 2.4-79.8 4.4-85.3 4.4 0 0-10.5 4.5-14.9 1-3-2.3-4-5.5-2.4-9.1 2.6-5.4 14.3-8.7 19.6-9.7 0 0 84.3.7 90.4-.4 3.8-4 10.5-3.4 16-4a56.3 56.3 0 0 1 16.4-7l3-1.2a133.2 133.2 0 0 1 72.6-3c7.7 1.1 15.2 2.8 22.8 4.7l1.5.4c8 2.1 16.1 4 24.4 2.5a80.8 80.8 0 0 0 19.3-6.5l.8-.4c13.6-6.2 34.9-10.9 50.2-10.9ZM218.1 37.7c-5-1-7.2 6.7-2.1 7.8 3.5.8 6.5 2.6 8.6 5.6l.2.3c2.7 4.4 9.7.4 7-4-3.2-5-8-8.4-13.7-9.7ZM365 33c-1.7-1.2-4.4-.3-5.4 1.5-1.1 2-.4 4 1.3 5.3l.1.2c1.6 1 3 3 3.2 5v.2c.2 5.1 8.2 5.1 8 0-.2-5.1-3-9.3-7.1-12.2Z" fill="#000"/></g></g></svg>