<svg xmlns="http://www.w3.org/2000/svg" viewBox="0 0 704 704" fill="none" shape-rendering="auto" width="512" height="512"><metadata xmlns:rdf="http://www.w3.org/1999/02/22-rdf-syntax-ns#" xmlns:xsi="http://www.w3.org/2001/XMLSchema-instance" xmlns:dc="http://purl.org/dc/elements/1.1/" xmlns:dcterms="http://purl.org/dc/terms/"><rdf:RDF><rdf:Description><dc:title>Open Peeps</dc:title><dc:creator>Pablo Stanley</dc:creator><dc:source xsi:type="dcterms:URI">https://www.openpeeps.com/</dc:source><dcterms:license xsi:type="dcterms:URI">https://creativecommons.org/publicdomain/zero/1.0/</dcterms:license><dc:rights>Remix of „Open Peeps” (https://www.openpeeps.com/) by „Pablo Stanley”, licensed under „CC0 1.0” (https://creativecommons.org/publicdomain/zero/1.0/)</dc:rights></rdf:Description></rdf:RDF></metadata><mask id="viewboxMask"><rect width="704" height="704" rx="0" ry="0" x="0" y="0" fill="#fff" /></mask><g mask="url(#viewboxMask)"><g fill-rule="evenodd" clip-rule="evenodd"><path d="M705.3 1074a2351.1 2351.1 0 0 1-15.6-101c-1-7.7-2.5-16.4 2.7-22 7.3-8 14-14.8 14.8-26.2.8-10.7-2.8-22.4-5-32.8a809.4 809.4 0 0 0-17.3-64.7c-6.6-21.7-13.9-43.2-21.3-64.6-6.9-20-13.5-40.3-22.5-59.5-17-36.5-46-63.5-81.6-81.6-9-4.5-27-20.5-36.3-24-8.5-3.4-8.5 6.3-16.9 2.6-6.7-2.9-13-6.7-16.7-13.2-4-7-14.3-16.9-15.9-25-3.3-17.4.3-32.2-12-45.3a90 90 0 0 0-41.1-23.8c-33.7-9.3-78.5-2.8-98.8 28.5-9.7 14.9-13 33-26.2 45.1-11.4 10.7-8.8 18-23.6 23.4-.9.3-23.6-4.5-24.4-4.2-16.2-3.5-31.7 6.2-46.5 11.8a325.4 325.4 0 0 0-63 32.3 399.2 399.2 0 0 0-102.3 98.5 482.5 482.5 0 0 0-76.4 161c-1.7 6.4-3.5 13-1.5 19.4 1.7 5.3 5.4 9.2 9.8 12.4 6 4.3 18 7 17.7 15.7-.1 6.6-2.4 13.5-3.5 20-1.3 7.7-2.3 15.5-3.4 23.2-4.8 35.4-8.6 71-10.3 106.6a920 920 0 0 0-.5 106c.1 2.3.8 4.5 2 6.2-1 .4-1.2 2.4.1 2.7l2.7.5a12 12 0 0 0 7 2.4l5.5.2c19.3 4 38.6 7.9 58.1 10.8 23.8 3.5 47.6 6.3 71.5 8.7 49.2 4.8 98 3.2 147.1.6a1877 1877 0 0 1 147.4-2c49.2 1.4 98.4 3.5 147.6 4.4 55 1 110-.5 164.8-5 7.5-.5 12.2-6.5 10.7-14-8.9-44.7-19-89.1-27-134Z" fill="#ffdbb4"/><path d="m201 597.5 1.2-.4c14.5-5.7 29.6-14.8 45.4-11.4.5-.2 10.8 1.9 17.9 3.2l-6.7 7L247 598c40.7 67.1 88.8 100.7 144.3 100.7 55.5 0 97.7-33.6 126.4-100.7l4-1c.4 0 1 .2 1.5.4 9.3 3.6 27.4 19.6 36.3 24.1 35.6 18 64.5 45 81.6 81.6 8.7 18.6 15.2 38 21.8 57.5l.7 2c7.4 21.4 14.7 43 21.3 64.6 6.3 20.4 12 41 16.6 61.8l.7 2.9c2.2 10.4 5.8 22 5 32.8a29 29 0 0 1-3 10.7l-80.4 29 38.4 261.3c-35.1 1.5-70.3 2-105.5 1.3-49.2-.9-98.4-3-147.6-4.3-47.7-1.2-95.3-.7-143 1.7l-12 .6a946.3 946.3 0 0 1-139.5-1l-3.1-.3v-38.3l16.3-212.9-83-15.6-81.3-39.5a21.7 21.7 0 0 1-5.6-8.8c-1.9-6-.5-12 1-18l.5-1.3a492.8 492.8 0 0 1 76.4-161A399.3 399.3 0 0 1 138 629.7c19.8-13 40.9-23.9 63-32.3Z" fill="#fdea6b"/><path d="M232.2 584.6c5.1-.3 10.3.6 15.4 1 .4.1.6.8 0 .9-9 1.9-18 4.5-26.9 7.1l-3.8 1.2c-10 3-19.8 6-29.6 10-19.4 7.9-37.8 18.5-54.8 30.8C67.2 682.8 20 754.3-9.9 828.3a526 526 0 0 0-24.3 77c-.4 1.6-2 5.4-1 7 .7 1.3 3.6 2.1 5 2.9l4.5 2.3 25.2 12.9 2.3 1.1c38 18.6 78.4 34.4 121 35.5l.4-3.7a342 342 0 0 1 9.9-60c.3-1 1.6-.6 1.7.3 3 23.1 2 46.4 1 69.7-1.8 41-4.3 82.2-6.5 123.3-1.2 20.6-2.6 41-3.9 61.7-1.3 20.5-1.7 41.6-4.7 62-.6 4.6-6 7-10 6.6-4.4-.5-7.9-4.5-8-9 0-11.9 1.5-24 2.4-35.8l2.5-33.8c3.1-41.1 6.8-82.2 10.2-123.3a4771 4771 0 0 1 3.8-43.7C76.4 979.8 34.2 963-6.1 943.5c-.6 13.2-2 26.5-3.4 39.6-3.8 36.8-7.1 73.6-9.6 110.5a2254.2 2254.2 0 0 0-4.2 92.7l-.2 7c0 4.4-.5 8.5-4.3 11.7-3.7 3.3-8.9 3.5-12.6 0-5-4.6-4.2-10.9-4-17.1a1675.6 1675.6 0 0 1 1.8-47.2 1321 1321 0 0 1 10.5-109.5l2-14c3.5-26 7.5-52.7 15.5-77.9-3.1-1.5-6.2-3-9.3-4.7-5.5-2.7-11.2-5.4-16.6-8.4-4.2-2.5-7.9-5.8-9-10.8-1.4-5.5.6-11.5 2-16.9v-.4a502 502 0 0 1 26.6-80 523.2 523.2 0 0 1 67.8-117 353.8 353.8 0 0 1 88.7-83.3 239 239 0 0 1 53.8-25.7 142.6 142.6 0 0 1 42.8-7.5Zm90.1-66c6-6.5 18.1.2 15.2 8.8a108.2 108.2 0 0 1-34.7 52A79.4 79.4 0 0 1 247 598l1.7 2.4a321.1 321.1 0 0 0 46.1 52.6c36 31.2 84.8 48 132 36 37.1-9.4 69.8-38.8 79.4-76.2-1.3.6-3 .9-4.8.5-7.7-1.7-15.3-9.8-20.3-15.6-5.3-6.3-9.5-13-12.6-20.7-5.6-14-7.4-32.1.3-45.7 1-1.7 3-.7 3.3 1l.3 2.5c1.5 12.7 3.3 25 9.3 36.6a76 76 0 0 0 18.2 23.1c2.6 2 5.8 3.6 8.1 6l.5.4c.6-5 4.1-7.3 7.6-7.2 3.3.2 7.3 1.6 8.8 2.3l.1.1a341 341 0 0 1 65.1 42 259 259 0 0 1 88.4 129c7.5 25.3 11.8 51.4 16.3 77.4l2.8 16c4.2 23.9 8.9 48.4 18.4 70.7 2.5 5.7.6 11.1-5.5 13.4A1493 1493 0 0 1 688 953c3.7 16 6 32.5 8.7 48.5 6 34.1 13.2 68 19.4 102 3.2 17.5 6.1 35 9.3 52.3l4.7 25.2 2.4 13.6.1.7c.5 2.4 1 4.9.4 7.3-.8 2.7-2.9 4.6-4.8 6.6-1.6 1.6-3.8 1.6-5.7.7l-.7-.3c-3.4-1.6-6-3.2-7.3-7-.7-2.5-1-5.2-1.5-7.7a3535.6 3535.6 0 0 1-7.8-43.6l-1.6-9.1c-5.2-31.4-10.2-62.9-12.8-94.5-1-14-2.3-28.1-3.5-42.2l-.9-10.5c-1.1-13.3-2.5-27-2.7-40.5l-4.5 1.6L657 964c-5.5 2-12.5 6-18.4 5.2-2.9-.3-5-1.2-6.8-2.9 2 28.8 4.8 57.4 8.5 86a1965.7 1965.7 0 0 0 22 135c.6 3.2 1.4 6.4 1.9 9.6.5 3.7-.5 5.9-2.5 9-1.7 2.4-5 3.7-7.8 2-3.6-2.3-5.5-4.3-6.5-8.4-1-3.7-1.6-7.6-2.3-11.4a1654.2 1654.2 0 0 1-11.4-65.2c-7.8-52-12.7-104.4-15.2-156.8a1388 1388 0 0 1-1.4-77.8c0-13.3.5-26.6 1.4-39.9 1-13.4 3-26.5 4.8-39.8 0-.5.7-.5.7 0 .8 14.9 2.1 29.8 2.8 44.7.6 14.3.9 28.5 1.4 42.8.6 18.7 1.5 37.5 2.7 56.2a9.6 9.6 0 0 1 8.5-3.1c4.7-1 9.7-3.4 14.1-5l16.8-5.5 26.4-8.7a679 679 0 0 1-18-80.8l-2-12.3c-4-24.2-8.5-48.5-15.8-72a229.8 229.8 0 0 0-34.8-68.2 370.2 370.2 0 0 0-52.7-55.3C557 627 539.7 614 523 600c.1.9.2 2 0 3-3.5 25.9-17 50-35.8 67.9-37.7 36-93.6 43.4-142 26.5-46.7-16.3-88-55-102.6-102.8-.3-.8.8-1 1.3-.5l2.4 3.3c0-.4.2-.9.7-1a129 129 0 0 0 46.6-29.2 100.2 100.2 0 0 0 21.3-33.3l.4-1c1.7-5 3.2-10.2 7-14.2Z" fill="#000"/></g><g transform="matrix(.99789 0 0 1 156 62)"><path fill-rule="evenodd" clip-rule="evenodd" d="M244.8 58.7c44.8 0 98.5 21.7 103 22.1h.2c2.4 0 11.8 7.2 28.1 21.5L358.4 137l1.4 1.4c7 6.6 12.8 12.6 17.4 17.3 37.8 38.6 44.6 190.3 35.7 243.2-9 53-25.4 104.7-102.2 104.7-76.8 0-162.3-46.2-175.4-60.6a37.4 37.4 0 0 0-29.6-13.8c-.4-.5-.9-1-1.3-1.7l-1.6-.2a99.6 99.6 0 0 1-32.6-8.8C57.4 411 43.4 373 43.4 364.7c0-8.3-21-68.8-21.5-75.2v-.1c0-5.4-27.4-30-27.4-37.7 0-7.8-5.6-7.4 0-34.9l1.6-8C2 179.5 13.5 131 57.4 109.9c48.3-23 142.2-51.2 187.4-51.2Z" fill="#ffdbb4"/><path d="M117.7 298.3s-20.2 9.6-40.4 25.2c-20.1 15.5-10.2 16-10.2 16s-.8 33.5 5.4 46.7c6.2 13.3 43 15.6 43 15.6l6.2 21-.8 9.6a33.5 33.5 0 0 0-15.2-3c-.4-.5-.9-1-1.3-1.7l-1.6-.2a99.6 99.6 0 0 1-32.6-8.8c-12.8-7.3-26.9-45.4-26.9-53.7 0-4.7-6.6-25.8-12.5-44.6-4.6-14.6-8.7-27.8-8.9-30.6v-.1c0-2.5-5.6-8.8-11.8-15.8-7.4-8.4-15.6-17.7-15.6-22 0-2.2-.5-3.8-1-5.6-1.3-4.3-3-9.7 1-29.2l1.6-8c5.9-29.3 17.4-77.8 61.3-98.9C105.7 87.1 199.6 59 244.8 59c35.3 0 76 13.5 94 19.4 4.9 1.6 8 2.6 9 2.7h.2c2.4 0 11.8 7.2 28.1 21.5l-4.1 8.1c-54.1 1.6-143 6.4-181.9 21.2-57.7 21.9-72.4 166.4-72.4 166.4Z" fill="#fdea6b"/><path fill-rule="evenodd" clip-rule="evenodd" d="M50 108.9C74 83.3 210.8 43.8 280 52l2 .3c5.5.7 11 1.8 16.4 3.2 17.3 4 35.2 10.2 49.6 20.5 12 8.3 49.7 22 38.6 44a32.5 32.5 0 0 1 2.9 25.2c-.4 2.6-1.2 5-2.3 7.6 8.9 13 15.8 27.7 21.5 41.7 9.9 35.2 16 71.9 17 107.8 2.9 68.3-4.6 149.9-64 194-36 28-92.2 29-132.6-5.8-2.3-2.7-13-10-9.5-11.3a102.7 102.7 0 0 0 3.3 3l-1-1c-2-1.8-4.6-4.5-1.7-4l.4.5 1.5 1h.1c-1.7-1.8-2.7-3.6-.2-2.4l.3.1 3.5 3.4v-.4l-1-1c-1.1-1-1-1-.4-1.9-2.3-3.1 2-1.3 2.2 0 2.6-.6 5 4.3 6.6 4.9 74 56.9 181.4 6.4 179.7-152.1v-3.1c-.6-50.7-4.8-102.8-25.8-148.7a132 132 0 0 0-6.8-12.9c-1.8-3.1-3.6-6.2-5.6-9.1a82.5 82.5 0 0 1-22-4.7l-80.1 4.6-8.5.5c-22.8 1.5-46.4 3.8-64.8 18-18.1 12.8-18.2 38.2-33.7 52.3-22 15-22.2 28.5-26.5 50.6.4 16.6 11.9 40.8-9.3 47.8 3.6 5-1.4 2.6-1.8.8 3.1 6-1.6 2.3-2 .4l-.7-.5c3.2 5.1-2 1.5-1.7.6-6.2-9.6-19-11-28-8.5 0 .3-.5.4-.7.2-38.2 8.3-28.4 87.4 10.8 79.7 1.7-.3 1.6.5 2 .6-1-2.4 1.6-1.4 1.6-1H109.6c-.9-4.8 4 2.3 3.7 2.5l.4-.1-.1-.5c-.8-2.2-.8-1.2-.8-2.5-.6-1.5-.6-.9-.5-1.9 2.2-1.6 2.8 3.4 3.5 3.8-1.2-1.7-.2-3.1 1-2.2 8.8 18.6 20.2 36 34.9 49.7 1.6 1.3 3.2 2.6 5 3.7 6.2 5.5 15.8 9 21.7 13.8l-.1.3v.1l.2.2 2 1c.7.5 1.2 1 1.7 1.7.5.6 1 1.2 1.3 1.9.2.8-.2 1.2-1 .8-.4 0-.7-.2-1-.4v.1c.1.2.9 2 0 1.7h-.1l-1.5-.6 1.6 2.1c.5.5.8 1.1.9 1.8 0 .4-.2.5-.6.5l-1.7-.6.1.3c.4.8 1 2.1 0 1.7a32 32 0 0 1-2.6-1c0 .2-.2.2-.5.1-2.6-1-5.2-2-7.7-3.5l-6.5-4.7c-2-1.2-4-2.6-6-4.1a129 129 0 0 1-32.4-30.1c-14.7 12.7-44.1.6-62.3-9.4-16-8.9-22.4-25.4-24-43-3.4-24-23-32.2-21.5-84.6h-.1c-.8-.2-1.4-.4-2-.8-.8-.3-1.4-.7-2-1.2l-.7-1-1-.6-.1.1c-.5.6-.2-.2-.1-.4L9.4 290l-9-12.4v.2l-.2.2a79.2 79.2 0 0 1-14-31c-2-8.3-1.2-16.8.5-24.5C-6 195.6 18.2 134.9 50 108.9ZM223.5 480l-.4-.3.4.4c.2.2.3.4.7.6v-.2l-.7-.5Zm56.1-414.5c-46.9-4-93 6.3-137.8 18.8l-3 1c-25.5 7.2-52.4 13.7-74 29.3-30 23-45.5 59.6-59 93.4a62.3 62.3 0 0 0 12 71c1.9-17.4 5-34.4 10-51.1 1-2.7.2-3.5 2.4-3.9 3.4 45.3-13.1 78.7 19.6 132.3 14.2 25.3-2.3 43.8 37.8 57l1 .5a47.3 47.3 0 0 0 25.7 3.9l-.7-1.2c-.7-1.2-1-1.8.1-2.4v-.1c-1-1.7-1.8-3.4-2.6-5l-1 .2c.2.4.2.8-.4 1-2.2.7-4.5 1-6.8.9h-.5a23 23 0 0 1-5.7-1.1l-1.5-.3c-4.7-1-9.7-3.7-13-6.4-37-21-33.2-92.7 12.5-99.5.9-45 22.4-121.2 58-164.2 32.1-39.5 120-56.6 181.2-50.6l2.6.9c9.5.8 18.5 5 27.9 7A85 85 0 0 0 342 85.6a161.7 161.7 0 0 0-62.4-20Zm-187 274.6c2.4-1.4 2.1 0 2.7-.4 17.7-1.5 36.7 14 46.6 26.9-.8.8-2.9-1.6-3.3-2l-.1.1.2.4c4 5.8-3.9-1-4.6-2.4-.2 0-.3.1-.4 0 .6.7 2.5 2.3 2.8 3.5l.5.4c4.8 4 4.4 7.2-1 1.3.1.3.2.6 0 .8h.3c2.7 2 4.9 7.2-.7 1.8.5 4-5.6-3.6-5.8-3.6a82.3 82.3 0 0 0-39.6-17.5h-.4c-2.5-.4-3.6-1-2.8-2.7-3-.7-2.3-2.2-.8-2.1-2.2-1.4-.3-2.8 1-2.3-.9-2.3 2.5-.7 2.8-1 1.8-2.8 2.3-.5 2.6-1.2Zm-37-145.4c8.4-3 33.5 6.2 31.5 18.6-1.2 2.8-5.1 4.4-8 2.8l-3.5-2.4c-6.3-4.2-12-8-18.7-11.6-3.7-1.8-5.3-5.7-1.4-7.4Zm48.2-18.3-3.3-2.1c-17.6-11.6-42.6-29.1 1.7-11 5 2.2 11.8 3.5 14.5 8.3 4.3 8.9-7 9.4-12.9 4.8Zm2-52c-1.4-5.3 16.2 1 21.4 2.7l.8.3c5 1.9 10.7 3.6 13.7 7.9 3.5 6-3.6 7.2-8 4.5-9-5.9-18.9-10.3-28-15.3Zm44.9-25c-10-10.8 16.7-.4 20.6 2.4l.2.1c3 2.1 2.3 6.6-.5 8-8 0-13.8-6.5-20.3-10.5Zm45.2-11.9c-15.8-11.3 5-6 12.3-1.5 4.9 4.4-.2 11.7-12.3 1.5Z" fill="#000"/></g><g transform="translate(315 248)"><g fill-rule="evenodd" clip-rule="evenodd"><path d="M105.8 231.1c4.6-14 54.2-34.8 62.6-28.8 8.3 6-2.5 49.2-2.5 49.2s-46.2 4.8-49.5 2.4c-3.3-2.4-15.2-8.7-10.6-22.8Z" fill="#fff"/><path d="M190.3 203.4c.3.3-.3.8-.7.5-3.8-2.7-9.8-1.1-13.5.1 0 0-1.3 43.3.2 44.3s22.4.5 22.4 3c0 8.4-12.6 11.6-19.4 11-10.8-.7-21.9-2.2-32.6-1-10.8 1.3-33.6 8.1-45.3-1.4-14-11.3-12.1-29.9-.5-42a68 68 0 0 1 28.7-15.7c15.5-5 52.1-8.1 60.7 1.2Zm-28.6 31.8a748.9 748.9 0 0 1-40.3 13.1c7.8-.5 34.3-1.1 40.3-4 .6-2.7 1-9.5 0-9Zm4.2-30c-15.2 2.5-48.1 13.6-52.8 19.6 7.1-1.2 47.2-6 51.8-6 .6-3.5.2-9.6 1-13.6Zm5-67.8c7.5 4.6 19 15.3 10.8 26.6-9.5 10-23.3-1.4-30-6.6-6.4-4-13.4 6.3-7.6 11 49 36.3 69-29.8 30.5-36.4-4.2-.8-5.8 4-3.8 5.4Zm16.7-67c4.4 0 7 2.8 10.3 5.4 3.4 2.6 7.6 4.7 11.6 6.3 4.1 1.7 8.6 3 13 4 4.5 1 8.7.5 13.2 1.4 12 2.2 9.2 22.2-2.8 21.2a59.6 59.6 0 0 1-30.7-14.5c-3.9-3.2-7.2-7-10.4-11l-.6-.7c-2.9-3.5-5.5-7.1-4-11.8 0-.2.1-.3.4-.3Zm-100 58.3c0-6.4 3.7-21 13-21 5.7 0 9.1 10 9.7 20.2v.4c.3 6.4-1.4 20.2-9.8 20.2S87.7 135.4 87.6 129v-.2Zm135.2 0c0-6.4-3.8-21-13-21-5.5 0-9 9.5-9.7 19.4v.8c-.4 6.1 1.2 20.6 9.8 20.6 8.4 0 12.8-13.1 12.9-19.6v-.2ZM117.7 71.3c5.7-2.4 12.2-1.7 15.7 4.2 3.3 5.5 1 12.3-4.1 15.7-5.1 3.4-12 5.2-17.8 7.1l-.6.2a148.2 148.2 0 0 1-33.7 7.4l-1.6.2c-4.3.5-10.3 2.1-14.2-.3a.8.8 0 0 1-.3-1c2.3-4 8.3-5.5 12.1-7.5 5-2.5 9.8-5.3 14.7-8l14.5-8.5c5-3 10-7.2 15.3-9.5Z" fill="#000"/></g></g><g transform="translate(279 400)"></g><g transform="translate(179 343)"></g><g transform="translate(203 303)"></g></g></svg>