<svg xmlns="http://www.w3.org/2000/svg" viewBox="0 0 704 704" fill="none" shape-rendering="auto" width="512" height="512"><metadata xmlns:rdf="http://www.w3.org/1999/02/22-rdf-syntax-ns#" xmlns:xsi="http://www.w3.org/2001/XMLSchema-instance" xmlns:dc="http://purl.org/dc/elements/1.1/" xmlns:dcterms="http://purl.org/dc/terms/"><rdf:RDF><rdf:Description><dc:title>Open Peeps</dc:title><dc:creator>Pablo Stanley</dc:creator><dc:source xsi:type="dcterms:URI">https://www.openpeeps.com/</dc:source><dcterms:license xsi:type="dcterms:URI">https://creativecommons.org/publicdomain/zero/1.0/</dcterms:license><dc:rights>Remix of „Open Peeps” (https://www.openpeeps.com/) by „Pablo Stanley”, licensed under „CC0 1.0” (https://creativecommons.org/publicdomain/zero/1.0/)</dc:rights></rdf:Description></rdf:RDF></metadata><mask id="viewboxMask"><rect width="704" height="704" rx="0" ry="0" x="0" y="0" fill="#fff" /></mask><g mask="url(#viewboxMask)"><g fill-rule="evenodd" clip-rule="evenodd"><path d="M705.3 1074a2351.1 2351.1 0 0 1-15.6-101c-1-7.7-2.5-16.4 2.7-22 7.3-8 14-14.8 14.8-26.2.8-10.7-2.8-22.4-5-32.8a809.4 809.4 0 0 0-17.3-64.7c-6.6-21.7-13.9-43.2-21.3-64.6-6.9-20-13.5-40.3-22.5-59.5-17-36.5-46-63.5-81.6-81.6-9-4.5-27-20.5-36.3-24-8.5-3.4-8.5 6.3-16.9 2.6-6.7-2.9-13-6.7-16.7-13.2-4-7-14.3-16.9-15.9-25-3.3-17.4.3-32.2-12-45.3a90 90 0 0 0-41.1-23.8c-33.7-9.3-78.5-2.8-98.8 28.5-9.7 14.9-13 33-26.2 45.1-11.4 10.7-8.8 18-23.6 23.4-.9.3-23.6-4.5-24.4-4.2-16.2-3.5-31.7 6.2-46.5 11.8a325.4 325.4 0 0 0-63 32.3 399.2 399.2 0 0 0-102.3 98.5 482.5 482.5 0 0 0-76.4 161c-1.7 6.4-3.5 13-1.5 19.4 1.7 5.3 5.4 9.2 9.8 12.4 6 4.3 18 7 17.7 15.7-.1 6.6-2.4 13.5-3.5 20-1.3 7.7-2.3 15.5-3.4 23.2-4.8 35.4-8.6 71-10.3 106.6a920 920 0 0 0-.5 106c.1 2.3.8 4.5 2 6.2-1 .4-1.2 2.4.1 2.7l2.7.5a12 12 0 0 0 7 2.4l5.5.2c19.3 4 38.6 7.9 58.1 10.8 23.8 3.5 47.6 6.3 71.5 8.7 49.2 4.8 98 3.2 147.1.6a1877 1877 0 0 1 147.4-2c49.2 1.4 98.4 3.5 147.6 4.4 55 1 110-.5 164.8-5 7.5-.5 12.2-6.5 10.7-14-8.9-44.7-19-89.1-27-134Z" fill="#edb98a"/><path d="m201 597.5 1.2-.4c14.5-5.7 29.6-14.8 45.4-11.4.5-.2 10.8 1.9 17.9 3.2l-6.7 7L247 598c40.7 67.1 88.8 100.7 144.3 100.7 55.5 0 97.7-33.6 126.4-100.7l4-1c.4 0 1 .2 1.5.4 9.3 3.6 27.4 19.6 36.3 24.1 35.6 18 64.5 45 81.6 81.6 8.7 18.6 15.2 38 21.8 57.5l.7 2c7.4 21.4 14.7 43 21.3 64.6 6.3 20.4 12 41 16.6 61.8l.7 2.9c2.2 10.4 5.8 22 5 32.8a29 29 0 0 1-3 10.7l-80.4 29 38.4 261.3c-35.1 1.5-70.3 2-105.5 1.3-49.2-.9-98.4-3-147.6-4.3-47.7-1.2-95.3-.7-143 1.7l-12 .6a946.3 946.3 0 0 1-139.5-1l-3.1-.3v-38.3l16.3-212.9-83-15.6-81.3-39.5a21.7 21.7 0 0 1-5.6-8.8c-1.9-6-.5-12 1-18l.5-1.3a492.8 492.8 0 0 1 76.4-161A399.3 399.3 0 0 1 138 629.7c19.8-13 40.9-23.9 63-32.3Z" fill="#9ddadb"/><path d="M232.2 584.6c5.1-.3 10.3.6 15.4 1 .4.1.6.8 0 .9-9 1.9-18 4.5-26.9 7.1l-3.8 1.2c-10 3-19.8 6-29.6 10-19.4 7.9-37.8 18.5-54.8 30.8C67.2 682.8 20 754.3-9.9 828.3a526 526 0 0 0-24.3 77c-.4 1.6-2 5.4-1 7 .7 1.3 3.6 2.1 5 2.9l4.5 2.3 25.2 12.9 2.3 1.1c38 18.6 78.4 34.4 121 35.5l.4-3.7a342 342 0 0 1 9.9-60c.3-1 1.6-.6 1.7.3 3 23.1 2 46.4 1 69.7-1.8 41-4.3 82.2-6.5 123.3-1.2 20.6-2.6 41-3.9 61.7-1.3 20.5-1.7 41.6-4.7 62-.6 4.6-6 7-10 6.6-4.4-.5-7.9-4.5-8-9 0-11.9 1.5-24 2.4-35.8l2.5-33.8c3.1-41.1 6.8-82.2 10.2-123.3a4771 4771 0 0 1 3.8-43.7C76.4 979.8 34.2 963-6.1 943.5c-.6 13.2-2 26.5-3.4 39.6-3.8 36.8-7.1 73.6-9.6 110.5a2254.2 2254.2 0 0 0-4.2 92.7l-.2 7c0 4.4-.5 8.5-4.3 11.7-3.7 3.3-8.9 3.5-12.6 0-5-4.6-4.2-10.9-4-17.1a1675.6 1675.6 0 0 1 1.8-47.2 1321 1321 0 0 1 10.5-109.5l2-14c3.5-26 7.5-52.7 15.5-77.9-3.1-1.5-6.2-3-9.3-4.7-5.5-2.7-11.2-5.4-16.6-8.4-4.2-2.5-7.9-5.8-9-10.8-1.4-5.5.6-11.5 2-16.9v-.4a502 502 0 0 1 26.6-80 523.2 523.2 0 0 1 67.8-117 353.8 353.8 0 0 1 88.7-83.3 239 239 0 0 1 53.8-25.7 142.6 142.6 0 0 1 42.8-7.5Zm90.1-66c6-6.5 18.1.2 15.2 8.8a108.2 108.2 0 0 1-34.7 52A79.4 79.4 0 0 1 247 598l1.7 2.4a321.1 321.1 0 0 0 46.1 52.6c36 31.2 84.8 48 132 36 37.1-9.4 69.8-38.8 79.4-76.2-1.3.6-3 .9-4.8.5-7.7-1.7-15.3-9.8-20.3-15.6-5.3-6.3-9.5-13-12.6-20.7-5.6-14-7.4-32.1.3-45.7 1-1.7 3-.7 3.3 1l.3 2.5c1.5 12.7 3.3 25 9.3 36.6a76 76 0 0 0 18.2 23.1c2.6 2 5.8 3.6 8.1 6l.5.4c.6-5 4.1-7.3 7.6-7.2 3.3.2 7.3 1.6 8.8 2.3l.1.1a341 341 0 0 1 65.1 42 259 259 0 0 1 88.4 129c7.5 25.3 11.8 51.4 16.3 77.4l2.8 16c4.2 23.9 8.9 48.4 18.4 70.7 2.5 5.7.6 11.1-5.5 13.4A1493 1493 0 0 1 688 953c3.7 16 6 32.5 8.7 48.5 6 34.1 13.2 68 19.4 102 3.2 17.5 6.1 35 9.3 52.3l4.7 25.2 2.4 13.6.1.7c.5 2.4 1 4.9.4 7.3-.8 2.7-2.9 4.6-4.8 6.6-1.6 1.6-3.8 1.6-5.7.7l-.7-.3c-3.4-1.6-6-3.2-7.3-7-.7-2.5-1-5.2-1.5-7.7a3535.6 3535.6 0 0 1-7.8-43.6l-1.6-9.1c-5.2-31.4-10.2-62.9-12.8-94.5-1-14-2.3-28.1-3.5-42.2l-.9-10.5c-1.1-13.3-2.5-27-2.7-40.5l-4.5 1.6L657 964c-5.5 2-12.5 6-18.4 5.2-2.9-.3-5-1.2-6.8-2.9 2 28.8 4.8 57.4 8.5 86a1965.7 1965.7 0 0 0 22 135c.6 3.2 1.4 6.4 1.9 9.6.5 3.7-.5 5.9-2.5 9-1.7 2.4-5 3.7-7.8 2-3.6-2.3-5.5-4.3-6.5-8.4-1-3.7-1.6-7.6-2.3-11.4a1654.2 1654.2 0 0 1-11.4-65.2c-7.8-52-12.7-104.4-15.2-156.8a1388 1388 0 0 1-1.4-77.8c0-13.3.5-26.6 1.4-39.9 1-13.4 3-26.5 4.8-39.8 0-.5.7-.5.7 0 .8 14.9 2.1 29.8 2.8 44.7.6 14.3.9 28.5 1.4 42.8.6 18.7 1.5 37.5 2.7 56.2a9.6 9.6 0 0 1 8.5-3.1c4.7-1 9.7-3.4 14.1-5l16.8-5.5 26.4-8.7a679 679 0 0 1-18-80.8l-2-12.3c-4-24.2-8.5-48.5-15.8-72a229.8 229.8 0 0 0-34.8-68.2 370.2 370.2 0 0 0-52.7-55.3C557 627 539.7 614 523 600c.1.9.2 2 0 3-3.5 25.9-17 50-35.8 67.9-37.7 36-93.6 43.4-142 26.5-46.7-16.3-88-55-102.6-102.8-.3-.8.8-1 1.3-.5l2.4 3.3c0-.4.2-.9.7-1a129 129 0 0 0 46.6-29.2 100.2 100.2 0 0 0 21.3-33.3l.4-1c1.7-5 3.2-10.2 7-14.2Z" fill="#000"/></g><g transform="matrix(.99789 0 0 1 156 62)"><g fill-rule="evenodd" clip-rule="evenodd"><path d="M242 75.3c56.8 0 130.1 35.6 136.4 72 7.3 43 46.8 208 37.9 261-9 52.8-57 90.9-133.7 90.9-76.8 0-134.2-41.9-147.3-56.3-13.2-14.4-37.6-65.7-37.6-65.7s-41-5.5-41.3-39c-.2-33.5 26.8-45.7 26.8-45.7s-9.6-132.3 14.5-166.7C122 91.3 185.3 75.3 242 75.3Z" fill="#edb98a"/><path d="M374.9 141.5c0-.8 1-.9 1.3-.2 12.2 40.5 19.8 72 27.7 113.5l2.4 12.2c6.2 32.6 12.6 65.2 18 97.9l.3 2c2.6 16.8 4.2 34 .8 51a85.6 85.6 0 0 1-22.8 41.9 158 158 0 0 1-81.6 42.6 170 170 0 0 1-69.4 0l-.9-.1c-7.6-1.7-14.4-3.6-18.4-10.8-1-1.8-.6-5 1.5-5.9 4-1.7 7-2.4 11.4-2 4.2.5 8.3 1.8 12.5 2.6a147 147 0 0 0 71.1-4c26.1-8 52.6-23.7 67.9-47 18-27.4 10.8-60.7 6-91l-.1-1c-4.8-30.9-9.6-61.9-14.2-92.8l-2-13.3c-5.1-35.1-10-60.2-11.5-95.6Zm-265-86A79.3 79.3 0 0 1 154.4 45h2c19.5.3 118.1 2.7 151.2 3.4l7.8.2 42.2.6h.6l15.9.3h.8c4 .2 7.3.8 10.4 3.6a6.9 6.9 0 0 1 2 5.6v.3l7.9.7c5.3.4 8.1 5.2 6 10l-.1.3c-3.8 8-6.7 31.5-8.7 40.1-1 4.6-1.9 9.2-2.4 13.8-.4 3.7-.4 7.4-2.5 10.6-4.3 6.9-16.6 6.8-16.8-3v-.8c-30.7-1.4-72.8-1.3-103.6.6a579 579 0 0 0-106.7 16.5c-5.8 1.5-13 2.4-18.1 5.5-5.8 3.5-5.7 9.8-5 15.8.6 6.4 1.7 3.1 3.3 9l.1.3a114 114 0 0 0 6.4 18.4c1.6 3.4 4 6.7 3.1 10.6a14 14 0 0 1-3.8 6c-7.3 7-19.5 2.5-24.5 12-5 10-5.2 23.5-5.7 34.5v.7c-.3 7.5-.2 15.2.3 22.7.4 7 2.3 13.8 0 20.4-1.8 4.8-7.4 5.3-10.4 1.3l-1-1.3-.2-.5.8 1.4c.2.5-.4 1-.8.6-7-7.5-17-6-24.9-.8-8 5.4-11 15.6-11.5 24.7-.4 10.1.5 22 4.7 31.4 1.8 4 4.3 7.6 8.5 9 2 .7 3.8.7 5.8.8 2 .2 4.5 1.2 6.5 1 2.6-.1 5 2.9 4.2 5.4v.1l-.1.4.2.3a186.3 186.3 0 0 0 58.9 67.5c1.2.7 2.3 1.2 3.7 1.6l2 .5.6.2h.2c1.8.2 3.3 1.5 4 3.4 1.5 5-1.3 9.4-6.3 10.7-5.3 1.5-10.4-1.1-14.6-4.1l-.3-.2a119 119 0 0 1-49.7-76.8c-1 2.1-2.3 4-4.6 5.2-3.5 2-7.8 2-11.7 1.4a29.3 29.3 0 0 1-19-12.6 51.3 51.3 0 0 1-7.4-22.9c-1-8-1.6-16-.5-23.9 1.5-11.5 6.3-22.8 15.6-29a109 109 0 0 1-7.7-49.1c.6-20.6 4.2-41.4 6.9-61.7l7.7-58 .4-2.3c1.8-13.6 4.1-27.3 9.2-40.1A66 66 0 0 1 110 55.6Zm-32.7 274c12.9-6.2 26.7-.4 33.6 11.6 6 10.5-11.8 17.5-14.8 6.6v-.3c-2-8.2-10-15.3-18.4-16.4-.6 0-1.2-1-.4-1.5Z" fill="#000"/></g></g><g transform="translate(315 248)"><path fill-rule="evenodd" clip-rule="evenodd" d="M177.5 205.3c3.5-6 13.7-5 15.3 2 3.1 14.3-14 27.6-26.9 27.9-12.9.3-27.3-10.6-25.5-24.5.5-3.4 5-3 6.6-.9l.6.9c4.3 5.7 9.9 11.5 17.7 10.2 3.3-.6 6.2-2.7 8.2-5.3 2.4-3.1 2.1-7 4-10.3ZM95.6 100.6c1.8-.5 3.5-.3 5 .4a10 10 0 0 1 7.7 7.6l.1.4-.4-1c.2 1 1 2.1 1.4 3.2.3 1.2.4 2.7.3 4.1l3.3.1 1 .1c6 .6 12.5 1.6 16 6.7 2 2.9.1 8-3.5 8.6-5.6.9-10.4-2.2-16-2.8-5.2-.6-10.7-.3-15.9.7-10.7 2-20.5 6.3-31 9l-1.4.4c-1.8.4-3.8-2.1-2-3.6 8.3-6.8 19-12.4 29.6-15.8a9.4 9.4 0 0 1-1-8.3l.6-1.6.4-1c0-.6.2-1 .3-1.6v-.1a8.2 8.2 0 0 1 5.5-5.5Zm106.7.4c2.2-2.3 5.5-2 7.8-.1l.4.2a13 13 0 0 1 5.3 5.2 13 13 0 0 1 2.1 6.6c5.6 0 10.9 1.6 15 6.1 1.2 1.5 2.1 3.7 1.4 5.6l-.4 1.2c-1.4 3.7-7.5 5.8-9.6 1.5v-.2c-2.3-5.2-10.8-4.7-15.3-4.1a58.3 58.3 0 0 0-12.5 3l-1 .3c-.6.2-3.6 1.8-1.8 1.4.5 0 1 .7.4.9-2.2 1-4.5-1-4.4-3.4.3-4 6.8-6.3 9.9-7.7h.2l3.7-1.7a18 18 0 0 1-2.8-7.2c-.2-.7-.2-1.3 0-2v-1.4l-.1-.2c0-1.5.7-3 1.7-4Zm-36.6 43.4c8.8 2.7 23.3 10.1 18.7 21.5-6.4 10.5-23.3 2.8-31.5-.6-7.4-2.4-11.2 8-4.1 11 59 23.4 58.7-38.2 19-37.3-4.3.1-4.4 4.5-2 5.4Zm-78-80.3 1.5-.4c7.8-2.2 15.8-6.1 22.7 0 2.7 2.3 3.2 7.3 1.3 10.3-4.4 6.7-11 5.7-18.1 6.3a56.3 56.3 0 0 0-27.5 10.5c-3.6 2.5-6 6.5-9.7 8.7-1.4.9-3 0-3.4-1.3-1.7-4.8 1.2-10.8 3.6-14.9 3-5 7.5-9 12.4-12A66.8 66.8 0 0 1 87.7 64Zm113.5-5c13.1-.1 25.8 7.2 33.1 18 2.5 3.6.7 9-2.9 11-4 2.4-8.3.7-11-2.6l-.1-.2a41 41 0 0 0-26.2-16l-1-.3c-1.6-.2-3.4-.5-4.8-.2-.7 0-1.4.3-2 .7.2.6-.5 1.4-1.3 1-3.2-1.8-2.8-5-.1-7.4 3.8-3.6 11.3-4 16.3-4Z" fill="#000"/></g><g transform="translate(279 400)"></g><g transform="translate(179 343)"></g><g transform="translate(203 303)"><path fill-rule="evenodd" clip-rule="evenodd" d="m399 13.2-2.5-.4a39 39 0 0 0-8.3-1.9C359.7 4.7 293.7 13.8 291 38c-9 3-17 .4-27.4.6-8-33.5-146.6-28.8-153.3-8.6-6.5-2-16-1.5-23.3-1.8-15.6-.3-31.3 1-46.6 4.4C11.6 37-27.5 42.5-7.6 78.3c3.5 3.5 9.3.7 9.5-4-6.7-17 8.5-19 20.1-24 29-10.4 58.6-11.8 88.5-8.6 2.3 2.7 5.7 5 9.3 6.2 20 3.3 9.5 18.2 22.2 20.3-2.3 51.9 60.6 80.2 97 46.1 14.6-14.2 18.1-35.3 21.5-54.3a5 5 0 0 0 3.6-2.7c4.3-4.3 7-8.2 15.4-9.4 8.5-1.2 15 1.2 16 1.9l.7 1.3c.4.7 1 1.2 1.5 1.7-8.4 51.6 31.7 84.2 72.2 57.5 17.5-16.6 21.3-41.9 22-64.5a6.8 6.8 0 0 0 3-7.7c-1-4.9 1.6-9 5.8-11.1 5.5-2.8 4.6-12.7-1.8-13.8ZM225 37.7c-5-1-7 6.7-2 7.8 3.5.8 6.5 2.6 8.6 5.6l.2.3c2.7 4.4 9.7.4 7-4-3.2-5-8-8.4-13.7-9.7ZM372.3 33c-1.8-1.2-4.5-.3-5.5 1.5-1.1 2-.4 4 1.3 5.3l.1.2c1.6 1 3 3 3.2 5v.2c.2 5.1 8.2 5.1 8 0-.2-5.1-3-9.3-7.1-12.2Z" fill="#000"/></g></g></svg>