<svg xmlns="http://www.w3.org/2000/svg" viewBox="0 0 704 704" fill="none" shape-rendering="auto" width="512" height="512"><metadata xmlns:rdf="http://www.w3.org/1999/02/22-rdf-syntax-ns#" xmlns:xsi="http://www.w3.org/2001/XMLSchema-instance" xmlns:dc="http://purl.org/dc/elements/1.1/" xmlns:dcterms="http://purl.org/dc/terms/"><rdf:RDF><rdf:Description><dc:title>Open Peeps</dc:title><dc:creator>Pablo Stanley</dc:creator><dc:source xsi:type="dcterms:URI">https://www.openpeeps.com/</dc:source><dcterms:license xsi:type="dcterms:URI">https://creativecommons.org/publicdomain/zero/1.0/</dcterms:license><dc:rights>Remix of „Open Peeps” (https://www.openpeeps.com/) by „Pablo Stanley”, licensed under „CC0 1.0” (https://creativecommons.org/publicdomain/zero/1.0/)</dc:rights></rdf:Description></rdf:RDF></metadata><mask id="viewboxMask"><rect width="704" height="704" rx="0" ry="0" x="0" y="0" fill="#fff" /></mask><g mask="url(#viewboxMask)"><g fill-rule="evenodd" clip-rule="evenodd"><path d="M705.3 1074a2351.1 2351.1 0 0 1-15.6-101c-1-7.7-2.5-16.4 2.7-22 7.3-8 14-14.8 14.8-26.2.8-10.7-2.8-22.4-5-32.8a809.4 809.4 0 0 0-17.3-64.7c-6.6-21.7-13.9-43.2-21.3-64.6-6.9-20-13.5-40.3-22.5-59.5-17-36.5-46-63.5-81.6-81.6-9-4.5-27-20.5-36.3-24-8.5-3.4-8.5 6.3-16.9 2.6-6.7-2.9-13-6.7-16.7-13.2-4-7-14.3-16.9-15.9-25-3.3-17.4.3-32.2-12-45.3a90 90 0 0 0-41.1-23.8c-33.7-9.3-78.5-2.8-98.8 28.5-9.7 14.9-13 33-26.2 45.1-11.4 10.7-8.8 18-23.6 23.4-.9.3-23.6-4.5-24.4-4.2-16.2-3.5-31.7 6.2-46.5 11.8a325.4 325.4 0 0 0-63 32.3 399.2 399.2 0 0 0-102.3 98.5 482.5 482.5 0 0 0-76.4 161c-1.7 6.4-3.5 13-1.5 19.4 1.7 5.3 5.4 9.2 9.8 12.4 6 4.3 18 7 17.7 15.7-.1 6.6-2.4 13.5-3.5 20-1.3 7.7-2.3 15.5-3.4 23.2-4.8 35.4-8.6 71-10.3 106.6a920 920 0 0 0-.5 106c.1 2.3.8 4.5 2 6.2-1 .4-1.2 2.4.1 2.7l2.7.5a12 12 0 0 0 7 2.4l5.5.2c19.3 4 38.6 7.9 58.1 10.8 23.8 3.5 47.6 6.3 71.5 8.7 49.2 4.8 98 3.2 147.1.6a1877 1877 0 0 1 147.4-2c49.2 1.4 98.4 3.5 147.6 4.4 55 1 110-.5 164.8-5 7.5-.5 12.2-6.5 10.7-14-8.9-44.7-19-89.1-27-134Z" fill="#ffdbb4"/><path d="m201 597.5 1.2-.4c14.5-5.7 29.6-14.8 45.4-11.4.5-.2 10.8 1.9 17.9 3.2l-6.7 7L247 598c40.7 67.1 88.8 100.7 144.3 100.7 55.5 0 97.7-33.6 126.4-100.7l4-1c.4 0 1 .2 1.5.4 9.3 3.6 27.4 19.6 36.3 24.1 35.6 18 64.5 45 81.6 81.6 8.7 18.6 15.2 38 21.8 57.5l.7 2c7.4 21.4 14.7 43 21.3 64.6 6.3 20.4 12 41 16.6 61.8l.7 2.9c2.2 10.4 5.8 22 5 32.8a29 29 0 0 1-3 10.7l-80.4 29 38.4 261.3c-35.1 1.5-70.3 2-105.5 1.3-49.2-.9-98.4-3-147.6-4.3-47.7-1.2-95.3-.7-143 1.7l-12 .6a946.3 946.3 0 0 1-139.5-1l-3.1-.3v-38.3l16.3-212.9-83-15.6-81.3-39.5a21.7 21.7 0 0 1-5.6-8.8c-1.9-6-.5-12 1-18l.5-1.3a492.8 492.8 0 0 1 76.4-161A399.3 399.3 0 0 1 138 629.7c19.8-13 40.9-23.9 63-32.3Z" fill="#e78276"/><path d="M232.2 584.6c5.1-.3 10.3.6 15.4 1 .4.1.6.8 0 .9-9 1.9-18 4.5-26.9 7.1l-3.8 1.2c-10 3-19.8 6-29.6 10-19.4 7.9-37.8 18.5-54.8 30.8C67.2 682.8 20 754.3-9.9 828.3a526 526 0 0 0-24.3 77c-.4 1.6-2 5.4-1 7 .7 1.3 3.6 2.1 5 2.9l4.5 2.3 25.2 12.9 2.3 1.1c38 18.6 78.4 34.4 121 35.5l.4-3.7a342 342 0 0 1 9.9-60c.3-1 1.6-.6 1.7.3 3 23.1 2 46.4 1 69.7-1.8 41-4.3 82.2-6.5 123.3-1.2 20.6-2.6 41-3.9 61.7-1.3 20.5-1.7 41.6-4.7 62-.6 4.6-6 7-10 6.6-4.4-.5-7.9-4.5-8-9 0-11.9 1.5-24 2.4-35.8l2.5-33.8c3.1-41.1 6.8-82.2 10.2-123.3a4771 4771 0 0 1 3.8-43.7C76.4 979.8 34.2 963-6.1 943.5c-.6 13.2-2 26.5-3.4 39.6-3.8 36.8-7.1 73.6-9.6 110.5a2254.2 2254.2 0 0 0-4.2 92.7l-.2 7c0 4.4-.5 8.5-4.3 11.7-3.7 3.3-8.9 3.5-12.6 0-5-4.6-4.2-10.9-4-17.1a1675.6 1675.6 0 0 1 1.8-47.2 1321 1321 0 0 1 10.5-109.5l2-14c3.5-26 7.5-52.7 15.5-77.9-3.1-1.5-6.2-3-9.3-4.7-5.5-2.7-11.2-5.4-16.6-8.4-4.2-2.5-7.9-5.8-9-10.8-1.4-5.5.6-11.5 2-16.9v-.4a502 502 0 0 1 26.6-80 523.2 523.2 0 0 1 67.8-117 353.8 353.8 0 0 1 88.7-83.3 239 239 0 0 1 53.8-25.7 142.6 142.6 0 0 1 42.8-7.5Zm90.1-66c6-6.5 18.1.2 15.2 8.8a108.2 108.2 0 0 1-34.7 52A79.4 79.4 0 0 1 247 598l1.7 2.4a321.1 321.1 0 0 0 46.1 52.6c36 31.2 84.8 48 132 36 37.1-9.4 69.8-38.8 79.4-76.2-1.3.6-3 .9-4.8.5-7.7-1.7-15.3-9.8-20.3-15.6-5.3-6.3-9.5-13-12.6-20.7-5.6-14-7.4-32.1.3-45.7 1-1.7 3-.7 3.3 1l.3 2.5c1.5 12.7 3.3 25 9.3 36.6a76 76 0 0 0 18.2 23.1c2.6 2 5.8 3.6 8.1 6l.5.4c.6-5 4.1-7.3 7.6-7.2 3.3.2 7.3 1.6 8.8 2.3l.1.1a341 341 0 0 1 65.1 42 259 259 0 0 1 88.4 129c7.5 25.3 11.8 51.4 16.3 77.4l2.8 16c4.2 23.9 8.9 48.4 18.4 70.7 2.5 5.7.6 11.1-5.5 13.4A1493 1493 0 0 1 688 953c3.7 16 6 32.5 8.7 48.5 6 34.1 13.2 68 19.4 102 3.2 17.5 6.1 35 9.3 52.3l4.7 25.2 2.4 13.6.1.7c.5 2.4 1 4.9.4 7.3-.8 2.7-2.9 4.6-4.8 6.6-1.6 1.6-3.8 1.6-5.7.7l-.7-.3c-3.4-1.6-6-3.2-7.3-7-.7-2.5-1-5.2-1.5-7.7a3535.6 3535.6 0 0 1-7.8-43.6l-1.6-9.1c-5.2-31.4-10.2-62.9-12.8-94.5-1-14-2.3-28.1-3.5-42.2l-.9-10.5c-1.1-13.3-2.5-27-2.7-40.5l-4.5 1.6L657 964c-5.5 2-12.5 6-18.4 5.2-2.9-.3-5-1.2-6.8-2.9 2 28.8 4.8 57.4 8.5 86a1965.7 1965.7 0 0 0 22 135c.6 3.2 1.4 6.4 1.9 9.6.5 3.7-.5 5.9-2.5 9-1.7 2.4-5 3.7-7.8 2-3.6-2.3-5.5-4.3-6.5-8.4-1-3.7-1.6-7.6-2.3-11.4a1654.2 1654.2 0 0 1-11.4-65.2c-7.8-52-12.7-104.4-15.2-156.8a1388 1388 0 0 1-1.4-77.8c0-13.3.5-26.6 1.4-39.9 1-13.4 3-26.5 4.8-39.8 0-.5.7-.5.7 0 .8 14.9 2.1 29.8 2.8 44.7.6 14.3.9 28.5 1.4 42.8.6 18.7 1.5 37.5 2.7 56.2a9.6 9.6 0 0 1 8.5-3.1c4.7-1 9.7-3.4 14.1-5l16.8-5.5 26.4-8.7a679 679 0 0 1-18-80.8l-2-12.3c-4-24.2-8.5-48.5-15.8-72a229.8 229.8 0 0 0-34.8-68.2 370.2 370.2 0 0 0-52.7-55.3C557 627 539.7 614 523 600c.1.9.2 2 0 3-3.5 25.9-17 50-35.8 67.9-37.7 36-93.6 43.4-142 26.5-46.7-16.3-88-55-102.6-102.8-.3-.8.8-1 1.3-.5l2.4 3.3c0-.4.2-.9.7-1a129 129 0 0 0 46.6-29.2 100.2 100.2 0 0 0 21.3-33.3l.4-1c1.7-5 3.2-10.2 7-14.2Z" fill="#000"/></g><g transform="matrix(.99789 0 0 1 156 62)"><g fill-rule="evenodd" clip-rule="evenodd"><path d="M397.5 243.8c-2.4-30.8 1.3-63-10.5-92.2-20.7-48.5-78.7-64.7-123.6-83.1-18-5.4-78.6-6.1-99.6-13.1-47.7-16-59.1-35-97-4.6a41.2 41.2 0 0 0-13.4 18.5h.2c-.9 3.2 0 6.4 1.9 8.9a61.8 61.8 0 0 0-14.9 64.3c27.5 58.2 26.2 89.7 17.4 152.2-11.6 58.4 14.8 79.8 58.7 111.5-1.8 3.5-2.2 8 .1 11.1 50.7 71.2 146.2 105.2 228 69 33.3-14.7 48.1-50 56.6-82a228.4 228.4 0 0 0 4.9-109.8c-3.3-16.9-7.5-33.6-8.8-50.7Z" fill="#ffdbb4"/><path d="m34.6 156.5 30.1 20.1L172.6 63l-36-28.2s-65 48-77.8 60.8c-12.8 12.7-24.2 61-24.2 61Z" fill="#e78276"/><path d="M105.2-96.9c6.2-.9 10.8 3 13 8.3l.2.3 2.3 5.4c15.4-7.6 37.4-5.7 47.1 9.6 7 11 2.7 24 0 35.5l-1.6 7.6c3.3 2.1 5.8 6 5.7 9.9v.3l-.7 10.6a55.2 55.2 0 0 0 10-14c8.6-12.9 27.8-1.7 20.7 12a67 67 0 0 0-9 18.6c3.3 1.5 6 4.7 6.2 9.5a29.4 29.4 0 0 1-14.8 26.8c-2.8 1.8-5.7 2.1-8.3 1.5l-1.4 1.8c3.8 3 7.2 6.6 10.1 10.5a182 182 0 0 1 26.6-2 59 59 0 0 1 35.5-3.2c7.5 1.3 14.7 3.8 22 5.6 7.8 1.8 15.7 2 23.6 3.2 10 1.6 18.6 6.2 24 13.5a36 36 0 0 1 17.7 6l36.5 23.5c4.6 3 6.4 7.8 5.5 13.1v.4l-.4 2.2 1 1.4c3.6 5.2 7.7 10.7 10.1 16.5 4.5 6.5 8.5 13.2 12 20.2a146.5 146.5 0 0 1 13.3 37.1c.6 3.7-.3 6.6-.9 10.2-.6 4.5-.9 9-1.6 13.5-.4 3-3 4.5-5.6 4.6a889.4 889.4 0 0 1 4.6 55.5c3 4.2 9 7.6 13.3 8.8 6 1.6 12.3-.1 18-2.2 3.5-1.3 6.5 3.2 4.7 6.2-5.4 9.4-17.1 9.4-26 5.2-3.8-1.7-7-4.3-9.5-7.6l.5 9.5.1 2.8c1.8 33.6 5.7 68.3-.6 101.5a127.5 127.5 0 0 1-116.6 104.7 161 161 0 0 1-68.6-12.3c-12.6-5-7.7-15.3 1-12.3 15.2 5 43 12.5 67.8 9.3 58.5-7.7 108.2-37 103-163-.7-17.8-2.9-35.7-3.4-53.6-.4-17.4-.3-35-1-52.4l-.3-6c-.3-6.9-.6-13.9-1.1-20.9-.7-2.7-1.2-5.4-2-8-2-7.3-4.8-14.3-8.2-21-.7.6-1.5 1-2.5 1.2a31.2 31.2 0 0 1-28-7.3c-1.2-1-2-2-2.6-3-3 0-6.2-1-8.2-3.2-2.2-2.6-2.6-5.2-1.7-7.7v-.2h-.1a38.5 38.5 0 0 1-13.7 16.8 55.5 55.5 0 0 1-31.5 8.5 218.2 218.2 0 0 1-46-5.4c-.2 0-.3.2-.4.3a34 34 0 0 1-37.6 6.8 58.5 58.5 0 0 1-19.4-14.4c0 3-.2 6.2-.5 9.3l-.1 1.2c-.6 5.8-1.6 11.9-6 16-7 6.8-17.2 4-25.3-.3v.6l6.6 22.4.4 1.6c1.6 5.3 3.4 10.6 3.9 16 1 10.7-6.1 21.1-17.9 17.6-6.2-1.9-11.1-7-15.8-11.2l-3-2.6c7.7 25.3 13 51.4 13.6 77.8 0 1.4-1.2 2.5-2.6 2.6-3.2 0-6.6-.5-9.8-1.8h-.6a37.2 37.2 0 0 1-15-5.7c1 3.2 1.5 6.7 1.3 10.4-.1 1-1.5 1.2-1.7.2-2.6-12.7-17.4-22.2-30.2-19.8a34.3 34.3 0 0 0-26.4 27.9 53.7 53.7 0 0 0 11.9 42.3c4.3 5.1 10 9.4 16.8 10.5 3.1.5 6.3.3 9.4-.6l3.7-1.4c1.7-.7 3.8-.8 5.5-1.6 3.8-1.7 7.6 1.8 5.7 5.7a16.4 16.4 0 0 1-6 7.5c2.3 2.8 4.3 6.6 5 7.6a128.7 128.7 0 0 0 26.8 28.4l2.3 1.8c5 4 9.4 7.6 12.9 13.3 2.8 4.5-.8 10.6-6 10.5-16.3-.2-28.2-14.6-36.6-27a69.7 69.7 0 0 1-3.4-5.7 12 12 0 0 1-1.3 1.7l1 2.5c2.7 7.4-9.2 12.2-12.6 5.3-2.5-5-5.4-9.7-8.7-14.2-1.9-.3-3.8-1.4-4.8-3-2.6-3.7-5.6-7.6-8-11.6a102 102 0 0 0-4.3-3.8l-1.3 1c-1.8 4.2-4 8-6.8 11.6l-.6.8c-5.4 6.7-12.4 13.6-21 15.2-2.6.5-5.1-2.7-2.8-4.8 6-5.4 13.2-9.1 18.7-15.2 2.8-3 5.3-6.2 7.4-9.7l.5-.8 1.1-1.8-7.5-5.1c-6.9 5.9-15.9 8.6-23.5 13.5l-.8.5c-7 4.6-14.2-5.6-8.6-11.2 6-6.2 11.2-13.5 16.6-20.4a40 40 0 0 1-4.2-15.8l-.5-4.8c-3.9 0-7.8-1.2-11-3.5l-1.3-1c-4 1.4-8.2 2-12.3 1.9-9.4-.3-13.3-11.1-7.4-18 6-7 16.6-8.5 25-5.1l.9-.5c-.4-1.8-.4-3.5 0-5v-.8a23 23 0 0 1-3.2-17.6c.2-.9.6-1.8 1-2.7-.7-1.7-1.1-3.5-1.3-5.3l-.5-.7a14.2 14.2 0 0 1 .6-17.6l.1-1-.6-1.5c-3.9-4-6.7-8.6-6.2-14.4a15 15 0 0 1 3.8-8.9 5 5 0 0 1 0-3.4c-3.3-9-2.9-20-.4-30.1-.6-1.5-.9-3.2-.8-5 .3-7.5 6.8-14.4 14.5-14.3 1 0 1.8.1 2.6.3v-.2c.3-2.2 1-4.3 1.8-6.2a4 4 0 0 1-1.2-.7c-5 2.7-10.1 4.7-15.6 6-4 1-8.2-3.5-5.6-7.3 1.1-1.8 2.4-3.3 3.8-4.8-2 0-4 .2-6 .4-3.6.5-7.7-2-10-5.3l-8.8 8.5c-7.4 7.2-18.6 1.9-19.8-7.6-2.2-.6-4.3-1.6-6-3a104 104 0 0 1-37.2 8.4c-9.3.4-14.7-10.4-10.3-18A60 60 0 0 1-66 145.4c-6.4 2-13 3.4-19.9 4.3-3.6.5-8.8-2.5-10.3-5.9a44.4 44.4 0 0 1 1.3-39l.8-1.5a75 75 0 0 1 2.2-5c-8-8.3-8.6-20.6-4.3-31a10.4 10.4 0 0 1-1.3-9.1 78.7 78.7 0 0 1 14.2-23.8l-1.5-3.6a29.8 29.8 0 0 1 8.5-30c5-4.6 10.8-7.3 17-9 2.5-4.6 5.9-8.7 9.7-12.2l.5-1c6-11.4 17-17.5 28.8-18.9.5-4.4 3.5-8.7 7.9-10 1.2-4 3-7.6 5.4-11C-3-66.4 3.4-69 9.5-65.4c3.3 1.9 6.5 4 9.5 6.4a13 13 0 0 1 4.5-1.1h.5l9.8-.6 12.4-5.6a33.2 33.2 0 0 1 18.7-7.5 89.9 89.9 0 0 1 29.8-4.7l.2-5.6v-1c-.2-6 4.7-10.8 10.3-11.7Zm-6.9 484-3 .6 1 2.2 2.4 1.3c-.3-1.4-.4-2.7-.4-4ZM47 372l-.7 1.2-.3.6 4.2.1v-.1l-.5-.2c-1-.5-1.9-1-2.7-1.6Zm27.7-55.8c8.9.5 16.4 1.8 24.4 5.7l.7.3c7.1 3.6 18.9 10 17.9 19.4-.3 2.7-2.2 5.5-5.3 5.3-8.3-.6-13-9-18.7-14.2a96.6 96.6 0 0 0-19.6-14.4c-1-.5-.6-2 .5-2.1h.1Zm-40-123.2c-2.2 0-1.5 2.1-.4.4 0-.2.2-.3.3-.4ZM149 55.4c-20 .5-40.2 12.3-55.3 24.3A196 196 0 0 0 59.3 116c-2.5 6.7-4.8 13.5-6.6 20.3-1.3 4.5-2 9-3 13.7l-.4 1.4a22 22 0 0 0-1.8 4.8c1.8 1.8 4.2 3.1 6.8 3.7.8.2 1.5.7 2 1.2 2.2-3.5 4-7.2 5-11v-.2c4.1-6.6 8.5-13 13.2-19.2A230 230 0 0 1 118.8 85c13-9.8 27.5-17.5 43-22.5a47 47 0 0 0-12.8-7.2Z" fill="#000"/></g></g><g transform="translate(315 248)"><path fill-rule="evenodd" clip-rule="evenodd" d="M126.2 196.3c5.5-9.2 17.5 13.3 18.7 17.2 1.2 3.4 1.9 7 2.3 10.5 4.3 1 8.8 1 13.3.1 6.6-1.2 10.6-4.8 16.3-7.8 4-2.1 9 .3 11 3.8 2.5 4.1 1 8.4-2.2 11.5-6 5.8-18 7.1-25.9 5.6-4.5-1-8.7-2.6-12.3-5l-.1 1.3v.8c-.7 6.5-2.5 14.6-7.5 18.8-8.2 6.8-18.3-6.4-10.3-13.3l.2-.2c5-4 6-14.7 5.8-20.7-.2-3.8-.9-7.7-2.1-11.4l-.3-.8c-.3-1-4.3-10.9-5.8-9.6-.6.8-1.6 0-1.1-.8Zm44.6-52c7.6 4.7 19 15.4 11 26.7-9.6 10-23.4-1.4-30.2-6.6-6.3-4-13.3 6.3-7.5 11 49 36.3 69-29.8 30.5-36.4-4.2-.8-5.8 4-3.8 5.4ZM90.2 102a28 28 0 0 1 21 4.9l.5.3c5.9 4.3 12.5 11.9 9 19.3-1.3 3-5.3 3.4-8 2-4.2-2.2-5-7.7-8.8-10.8-3.1-2.5-7.4-4-11.4-3.6-9.5.8-15.3 10.2-18.3 18.3-.4 1-1.9 1.4-2.5.3-7-13 5.4-28.3 18.5-30.7ZM208.4 97c14.1-1.1 30.7 13.5 27 28.5-1.8 7.1-12.5 7-14.3 0-1-3.9-1-7.3-3.7-10.4a10.9 10.9 0 0 0-9-4 16 16 0 0 0-10 5c-2.5 2.3-4 5.9-6.4 8-.7.6-1.5.6-2 0-4.4-4-1.8-12.2 1-16.4 3.8-6 10.2-10 17.4-10.7ZM63.3 75.5c9-8 25.5-15.8 37.7-11.9 7 2.3 10.1 13.6 2.3 17.2-9.1 4.2-19.6 2.5-28.8 6.8-4 1.8-7.6 4-10.3 7.4-2.1 2.6-4.3 6-7.4 7.6-.8.4-1.9.4-2.5-.4-6.8-7.6 3-21.5 9-26.7Zm129.5-12.3a40.4 40.4 0 0 1 33.6 6.3l.6.4c5 3.8 11.1 9.4 10.8 16.1-.3 5.7-6.2 9.5-11.4 6.6-4.2-2.5-6.1-7.3-9.7-10.5a33.4 33.4 0 0 0-22.5-8.7c-3.4 0-6.8 1-10 1.4.2.5-2.4.3-4-.2-1-.5-1-1.9-.6-2.8 1.9-4.5 8.8-7.3 13.2-8.6Z" fill="#000"/></g><g transform="translate(279 400)"></g><g transform="translate(179 343)"></g><g transform="translate(203 303)"></g></g></svg>