<svg xmlns="http://www.w3.org/2000/svg" viewBox="0 0 704 704" fill="none" shape-rendering="auto" width="512" height="512"><metadata xmlns:rdf="http://www.w3.org/1999/02/22-rdf-syntax-ns#" xmlns:xsi="http://www.w3.org/2001/XMLSchema-instance" xmlns:dc="http://purl.org/dc/elements/1.1/" xmlns:dcterms="http://purl.org/dc/terms/"><rdf:RDF><rdf:Description><dc:title>Open Peeps</dc:title><dc:creator>Pablo Stanley</dc:creator><dc:source xsi:type="dcterms:URI">https://www.openpeeps.com/</dc:source><dcterms:license xsi:type="dcterms:URI">https://creativecommons.org/publicdomain/zero/1.0/</dcterms:license><dc:rights>Remix of „Open Peeps” (https://www.openpeeps.com/) by „Pablo Stanley”, licensed under „CC0 1.0” (https://creativecommons.org/publicdomain/zero/1.0/)</dc:rights></rdf:Description></rdf:RDF></metadata><mask id="viewboxMask"><rect width="704" height="704" rx="0" ry="0" x="0" y="0" fill="#fff" /></mask><g mask="url(#viewboxMask)"><g fill-rule="evenodd" clip-rule="evenodd"><path d="M705.3 1074a2351.1 2351.1 0 0 1-15.6-101c-1-7.7-2.5-16.4 2.7-22 7.3-8 14-14.8 14.8-26.2.8-10.7-2.8-22.4-5-32.8a809.4 809.4 0 0 0-17.3-64.7c-6.6-21.7-13.9-43.2-21.3-64.6-6.9-20-13.5-40.3-22.5-59.5-17-36.5-46-63.5-81.6-81.6-9-4.5-27-20.5-36.3-24-8.5-3.4-8.5 6.3-16.9 2.6-6.7-2.9-13-6.7-16.7-13.2-4-7-14.3-16.9-15.9-25-3.3-17.4.3-32.2-12-45.3a90 90 0 0 0-41.1-23.8c-33.7-9.3-78.5-2.8-98.8 28.5-9.7 14.9-13 33-26.2 45.1-11.4 10.7-8.8 18-23.6 23.4-.9.3-23.6-4.5-24.4-4.2-16.2-3.5-31.7 6.2-46.5 11.8a325.4 325.4 0 0 0-63 32.3 399.2 399.2 0 0 0-102.3 98.5 482.5 482.5 0 0 0-76.4 161c-1.7 6.4-3.5 13-1.5 19.4 1.7 5.3 5.4 9.2 9.8 12.4 6 4.3 18 7 17.7 15.7-.1 6.6-2.4 13.5-3.5 20-1.3 7.7-2.3 15.5-3.4 23.2-4.8 35.4-8.6 71-10.3 106.6a920 920 0 0 0-.5 106c.1 2.3.8 4.5 2 6.2-1 .4-1.2 2.4.1 2.7l2.7.5a12 12 0 0 0 7 2.4l5.5.2c19.3 4 38.6 7.9 58.1 10.8 23.8 3.5 47.6 6.3 71.5 8.7 49.2 4.8 98 3.2 147.1.6a1877 1877 0 0 1 147.4-2c49.2 1.4 98.4 3.5 147.6 4.4 55 1 110-.5 164.8-5 7.5-.5 12.2-6.5 10.7-14-8.9-44.7-19-89.1-27-134Z" fill="#ae5d29"/><path d="m201 597.5 1.2-.4c14.5-5.7 29.6-14.8 45.4-11.4.5-.2 10.8 1.9 17.9 3.2l-6.7 7L247 598c40.7 67.1 88.8 100.7 144.3 100.7 55.5 0 97.7-33.6 126.4-100.7l4-1c.4 0 1 .2 1.5.4 9.3 3.6 27.4 19.6 36.3 24.1 35.6 18 64.5 45 81.6 81.6 8.7 18.6 15.2 38 21.8 57.5l.7 2c7.4 21.4 14.7 43 21.3 64.6 6.3 20.4 12 41 16.6 61.8l.7 2.9c2.2 10.4 5.8 22 5 32.8a29 29 0 0 1-3 10.7l-80.4 29 38.4 261.3c-35.1 1.5-70.3 2-105.5 1.3-49.2-.9-98.4-3-147.6-4.3-47.7-1.2-95.3-.7-143 1.7l-12 .6a946.3 946.3 0 0 1-139.5-1l-3.1-.3v-38.3l16.3-212.9-83-15.6-81.3-39.5a21.7 21.7 0 0 1-5.6-8.8c-1.9-6-.5-12 1-18l.5-1.3a492.8 492.8 0 0 1 76.4-161A399.3 399.3 0 0 1 138 629.7c19.8-13 40.9-23.9 63-32.3Z" fill="#e78276"/><path d="M232.2 584.6c5.1-.3 10.3.6 15.4 1 .4.1.6.8 0 .9-9 1.9-18 4.5-26.9 7.1l-3.8 1.2c-10 3-19.8 6-29.6 10-19.4 7.9-37.8 18.5-54.8 30.8C67.2 682.8 20 754.3-9.9 828.3a526 526 0 0 0-24.3 77c-.4 1.6-2 5.4-1 7 .7 1.3 3.6 2.1 5 2.9l4.5 2.3 25.2 12.9 2.3 1.1c38 18.6 78.4 34.4 121 35.5l.4-3.7a342 342 0 0 1 9.9-60c.3-1 1.6-.6 1.7.3 3 23.1 2 46.4 1 69.7-1.8 41-4.3 82.2-6.5 123.3-1.2 20.6-2.6 41-3.9 61.7-1.3 20.5-1.7 41.6-4.7 62-.6 4.6-6 7-10 6.6-4.4-.5-7.9-4.5-8-9 0-11.9 1.5-24 2.4-35.8l2.5-33.8c3.1-41.1 6.8-82.2 10.2-123.3a4771 4771 0 0 1 3.8-43.7C76.4 979.8 34.2 963-6.1 943.5c-.6 13.2-2 26.5-3.4 39.6-3.8 36.8-7.1 73.6-9.6 110.5a2254.2 2254.2 0 0 0-4.2 92.7l-.2 7c0 4.4-.5 8.5-4.3 11.7-3.7 3.3-8.9 3.5-12.6 0-5-4.6-4.2-10.9-4-17.1a1675.6 1675.6 0 0 1 1.8-47.2 1321 1321 0 0 1 10.5-109.5l2-14c3.5-26 7.5-52.7 15.5-77.9-3.1-1.5-6.2-3-9.3-4.7-5.5-2.7-11.2-5.4-16.6-8.4-4.2-2.5-7.9-5.8-9-10.8-1.4-5.5.6-11.5 2-16.9v-.4a502 502 0 0 1 26.6-80 523.2 523.2 0 0 1 67.8-117 353.8 353.8 0 0 1 88.7-83.3 239 239 0 0 1 53.8-25.7 142.6 142.6 0 0 1 42.8-7.5Zm90.1-66c6-6.5 18.1.2 15.2 8.8a108.2 108.2 0 0 1-34.7 52A79.4 79.4 0 0 1 247 598l1.7 2.4a321.1 321.1 0 0 0 46.1 52.6c36 31.2 84.8 48 132 36 37.1-9.4 69.8-38.8 79.4-76.2-1.3.6-3 .9-4.8.5-7.7-1.7-15.3-9.8-20.3-15.6-5.3-6.3-9.5-13-12.6-20.7-5.6-14-7.4-32.1.3-45.7 1-1.7 3-.7 3.3 1l.3 2.5c1.5 12.7 3.3 25 9.3 36.6a76 76 0 0 0 18.2 23.1c2.6 2 5.8 3.6 8.1 6l.5.4c.6-5 4.1-7.3 7.6-7.2 3.3.2 7.3 1.6 8.8 2.3l.1.1a341 341 0 0 1 65.1 42 259 259 0 0 1 88.4 129c7.5 25.3 11.8 51.4 16.3 77.4l2.8 16c4.2 23.9 8.9 48.4 18.4 70.7 2.5 5.7.6 11.1-5.5 13.4A1493 1493 0 0 1 688 953c3.7 16 6 32.5 8.7 48.5 6 34.1 13.2 68 19.4 102 3.2 17.5 6.1 35 9.3 52.3l4.7 25.2 2.4 13.6.1.7c.5 2.4 1 4.9.4 7.3-.8 2.7-2.9 4.6-4.8 6.6-1.6 1.6-3.8 1.6-5.7.7l-.7-.3c-3.4-1.6-6-3.2-7.3-7-.7-2.5-1-5.2-1.5-7.7a3535.6 3535.6 0 0 1-7.8-43.6l-1.6-9.1c-5.2-31.4-10.2-62.9-12.8-94.5-1-14-2.3-28.1-3.5-42.2l-.9-10.5c-1.1-13.3-2.5-27-2.7-40.5l-4.5 1.6L657 964c-5.5 2-12.5 6-18.4 5.2-2.9-.3-5-1.2-6.8-2.9 2 28.8 4.8 57.4 8.5 86a1965.7 1965.7 0 0 0 22 135c.6 3.2 1.4 6.4 1.9 9.6.5 3.7-.5 5.9-2.5 9-1.7 2.4-5 3.7-7.8 2-3.6-2.3-5.5-4.3-6.5-8.4-1-3.7-1.6-7.6-2.3-11.4a1654.2 1654.2 0 0 1-11.4-65.2c-7.8-52-12.7-104.4-15.2-156.8a1388 1388 0 0 1-1.4-77.8c0-13.3.5-26.6 1.4-39.9 1-13.4 3-26.5 4.8-39.8 0-.5.7-.5.7 0 .8 14.9 2.1 29.8 2.8 44.7.6 14.3.9 28.5 1.4 42.8.6 18.7 1.5 37.5 2.7 56.2a9.6 9.6 0 0 1 8.5-3.1c4.7-1 9.7-3.4 14.1-5l16.8-5.5 26.4-8.7a679 679 0 0 1-18-80.8l-2-12.3c-4-24.2-8.5-48.5-15.8-72a229.8 229.8 0 0 0-34.8-68.2 370.2 370.2 0 0 0-52.7-55.3C557 627 539.7 614 523 600c.1.9.2 2 0 3-3.5 25.9-17 50-35.8 67.9-37.7 36-93.6 43.4-142 26.5-46.7-16.3-88-55-102.6-102.8-.3-.8.8-1 1.3-.5l2.4 3.3c0-.4.2-.9.7-1a129 129 0 0 0 46.6-29.2 100.2 100.2 0 0 0 21.3-33.3l.4-1c1.7-5 3.2-10.2 7-14.2Z" fill="#000"/></g><g transform="matrix(.99789 0 0 1 156 62)"><g fill-rule="evenodd" clip-rule="evenodd"><path d="M403.3 205.4c18.2-11.6 42.9-41.3 28.8-63.8a25.7 25.7 0 0 0-22-12.4c-2-2.5-5.4-3.3-8.6-3.3v-.1a57 57 0 0 0-32.2 11c-6-5.3-13.4-8.3-20.6-11.5 3-15.2 7.7-30 12.9-44.6 2.8-8.4-6.1-17.2-14.6-14.7 2-9-2.7-19.6-13-19.5-5.6 0-12 3-17.3 4.3-4 1-7.9 2-11.7 3.3v-.3c10-7 9.7-23.3-5.1-21.7-6.3.6-12.8 4.9-18.6 7.5-9.6.6-18.8 3.6-28.2 5.8-25.6 6.4-53 12.7-74 28.8-36.5 14-81.9 35.8-86.4 78.8-64.3-24.8-112.9 54.6-54.6 85.8 11.5 5.4 24.7 8.1 37.2 5.6-3 10.9-5.8 21.9-8.4 32.9C44.6 328.4 26.6 382.5 33 438.6c0 10.2 13.2 16 20.4 8.5 6-7.2 13.2 1.2 11.3 8.2a12.1 12.1 0 0 0 11.5 15.1c9.5.5 17-5.9 23.7-11.7l.7-.4c16.5 39 32 8.7 52.5 26.3 4.7 4.4 8 9.6 14.2 12.5 14.3 7.2 25.6-5.7 39.3-7.2 12.7-1 25.2 3.4 37.3 6.4 14.2 3.4 28.5 5.2 43 3.6 18.7-2 55.8-10.5 66.8-17.4 13.5 9 27.3-1.7 34.7-14 5.2 5 15 5.7 19.1-2 4.2-8.5 12-21.6 20.8-19.7.8.3 1.3.4 1.8.8 8.3 7 19 1.7 20.2-8.6 7.9-66.6-8.2-133.3-29.6-196-4.6-13-8.5-26.7-17.5-37.6Z" fill="#ae5d29"/><path d="M396 203.5c-.4-.9 1-1.4 1.5-.6a518.7 518.7 0 0 1 38 82.6c9.2 25.3 17.4 51 23.2 77.2l.4 1.8c5.5 25.3 8.2 52 1 77.4l-.3 1.2c-1.7 5.6-3.9 11.3-9 14.6a19.5 19.5 0 0 1-14.1 2.4c-4.2-.7-8.2-2.5-12.4-3-3.1-.4-4 1.1-4.9 3.7l-.7 2.2c-3.3 9-7.3 17.6-18 19.5-5.8 1-12 0-17-3l-.2.5-.2 1c-1 3.9-2.4 7.8-5.2 10.9a15.6 15.6 0 0 1-15 4.6c-2.5-.5-4.9-1.7-7.3-2.6a7.3 7.3 0 0 1-8.4 5.5c-2-.4-3.6-1.4-4.7-2.5a56.2 56.2 0 0 1-20.3 8.4c-9.7 2.5-20 3.5-30.1 3.2a98.6 98.6 0 0 1-30.2-5.7l-1.5-.6c-8.3-3-17-6.9-23.7-12.6-1.3-.6-.5-3 1-2.5 9.2 3 17.7 6.4 27.2 7.8 9 1.3 18 1.5 27.2 1 9.2-.6 18.1-2.4 27-5.2 7.6-2.4 15.1-6.8 23.2-7.4l1.4-1.7c7-6.8 14.2-3.4 22.1-.9.3 0 .3.2.3.4l.1-.2h.1c-.4.4.3-1 .4-1.3 1-2.5 1.3-5.2 2-7.7 1.9-6 5.3-11.5 11.9-13 3.2-.7 7.6.4 9.1 3.8 1.3 2.7 3.3 4.1 6.4 4 3.3 0 4.5-2 5.6-4.8 1.8-4.6 2.8-9.5 5.9-13.6 3.4-4.6 8.5-7.3 14.2-7.5 4.4-.2 8.8 1.1 13 2.3l.4.1c1.9.6 5.3 2 6.8 1 2.3-1.5 3.5-10.3 4.1-13.6v-.2c1.2-5.5 1.9-11.2 2.2-16.9 1.1-23.8-3.8-47.5-9.2-70.6A1233.6 1233.6 0 0 0 396 203.5ZM76.6 261.7c.3-.4 1 0 .7.4-1 2.3-1.5 4.7-2.2 7-.9 2.6-2.3 5.2-3.3 7.7l-5 12.3c-3.2 8.3-6.3 16.7-9.2 25.1-5.8 17-10.6 34.3-14 51.8a266.6 266.6 0 0 0-6.2 53 61.2 61.2 0 0 0 5.8 27l.4.7.1.3.4.5c1-1.5 3.9-3.4 5-4.4l.2-.2 5.6-5.2c2.5-2.2 6-2.8 9-1.1 9 5 8.6 14.3 10.5 23.1l.1.4c.9 3.7 2.3 6.8 6.7 6 4.6-.7 7.3-5.4 8.8-9.5l.2-.5c2.7-7.5 12.3-7.2 15 0l1 2.7c2.2 5.6 5.1 12.4 10.6 14.6 4.7 1.9 10-1 14.2-2.6 2.3-1 5 1 5.7 3.2l.3 1.7c4.5-.4 8.7.6 13 2.6 5.7 2.6 12.8 8.3 14 14.9 1.2 7.7-7.8 11.4-12.4 5.2-3-4-4-8.7-7.5-12.4-2-2.2-4.6-4-7.3-5.7-2.4 8.5-15.8 10.9-23.8 8.4-7.7-2.4-12.8-8-16.6-14.7-7 7-17 10.3-26.8 4.3-5.7-3.5-8.4-9.7-9.4-16-.4-2-.4-5.1-1-8l-.5.6c-4.8 5-10.4 9.5-16.7 8.5-8.3-1.4-12.2-10.7-14.8-17.7-5.4-14.6-4.4-30.8-2.6-46a339.8 339.8 0 0 1 26.2-95.1 231.4 231.4 0 0 1 18-33c2.4-3.5 5.4-6.4 7.8-9.9ZM26.9 159a54.4 54.4 0 0 1 66.5-6 47 47 0 0 1 15 16.7c.2.5-.4 1-.8.6a59.3 59.3 0 0 0-40.9-14.5 47.2 47.2 0 0 0-44.8 49 40.6 40.6 0 0 0 18.8 32c11.6 6.8 24.8 4.5 37.3 1.5 4.5-1 6.7 4 4.2 7.2-12.6 16-38.6 11.8-53.2.8C1 225 1.8 182.2 27 159ZM67.8 184l1-.2c9.1-1.5 28.5-3.2 31.3 7.9 1.5 5.6-4.1 8.7-9 8.4-4-.2-8-1.4-12-2.3-1.1 4-1.5 8-2 12.2-.6 3.6-6.3 2.6-6.3-.9.1-4.7 2.4-8.8 5.9-11.8a70.5 70.5 0 0 0-31.5 4.3l1 .6c.4.1.2.8-.3.7l-4.6.2c-1.9.5-3-1.7-1.8-3.2 7.1-8.4 17.4-14 28.3-15.9ZM399 124.8a35 35 0 0 1 35.1 15.6c7 11.3 7.6 25.7 2.7 37.8a56.9 56.9 0 0 1-21 25.6c-3.8 2-6.7 1.8-10.7 1-2.5-.4-4.3-3.7-3.5-6.1l.6-1.9c.7-2 1.3-3.4 3.1-5.3 1.6-1.6 3.6-3 5.3-4.4 3.8-3.1 7.3-6.6 10-10.8a29.7 29.7 0 0 0 3.7-25.1 23.5 23.5 0 0 0-20.3-16.5 57 57 0 0 0-16.5.9l-3.3.6c-4.6.8-8.3 1.8-11.5 6-.3.4-.8.3-1-.1-1.5-4.6 3.3-8.7 6.8-10.9 6-3.7 13.6-5.6 20.5-6.4Zm-60.4-5.6c-.7-.9-.1-2.6 1.2-2.1 15.5 5.8 28.5 20.1 37.4 33.6 2.7 4 5.1 8.3 7.3 12.7 3.1-3.8 7.8-6.5 12.1-8.4l.5-.2c5-2 15.9-5.7 19 1a5 5 0 0 1-1.2 6c-2.7 2.6-7 1.7-10.3 1.6-6.8 0-12.1 2.1-18.1 4.2l3 7.2c1.4 3.3 2.3 6.8 4 10 1.4 3 3.8 5.7 5.8 8.4 2.7 3.7-1 9.8-5.3 9.4-9.2-1-12.9-8.5-15.4-16.6l-1.4-4.4c-2-6.6-4.2-13-7.3-19.3-4-8-8.8-15.9-14.2-23-5.4-7-11.7-13.2-17.1-20.1Zm-24-94.8c5.8-2.1 10.6 5.2 7.7 10-2.5 4.1-4 8.5-4.5 13l25.1-6c5-1.2 9.8 3.2 8.4 8.4l-3.9 14.4a62 62 0 0 1 15.7-3c4.6-.3 7.2 4.4 6.4 8.4-1.6 8.2-3.8 16.3-6.7 24.1l-2.2 5.7c-2.5 6.6-5.5 13.2-11.5 17-3 1.7-6.8-.6-6.8-4 0-8 5-15 7.8-22.5 1.7-4.6 3-9.2 4.3-14a47.3 47.3 0 0 0-13.4 6.3l-.6.5c-5 3.4-11.2-2.2-10-7.5V75l4.8-17.7-22.5 5.4c-4.7 1.1-8.3-2.1-8.7-6.6-.5-4.8-.2-9.5.8-14-14.9 4.6-30.1 8.3-45.4 11.7l-2.3.5c-33.5 7.4-67.7 14-98.4 30-13.6 7-26 15.3-37.4 25.6a114 114 0 0 0-21 25.6l-1.5 2.5c-.7 1.2-1.3 2.5-1.8 3.8l-.2.6c-.3 1-.7 2.5-.4 3.5.5 1.4 3 3.7 4.8 3 .2 0 .3.3.2.4-1.6 1.9-3.8 2.2-6 1.3-3.5-1.5-4.4-5-4-8.5 1-8.8 7-18.5 12-25.7C123.1 87 156 69.2 189.1 58.1c41.1-13.8 84.7-18.5 125.5-33.7Z" fill="#000"/></g></g><g transform="translate(315 248)"><path fill-rule="evenodd" clip-rule="evenodd" d="M55.6 167.6c3.5-7.8 19.1-20 19.1-20s4.8 27 1.1 35.3c-3 6.8-14 19.2-22 15.7s-4-18 1.8-31ZM250.2 160.5c-2.8-6.6-15.7-17-15.7-17s-3.9 22.9-.9 30c2.5 5.7 11.5 16.2 18.1 13.2 6.6-3 3.2-15.3-1.5-26.2ZM117 199.2h87.8l5.2 14.5s-65.5 15.3-88.5 5.5l-4.5-20Z" fill="#fff"/><g fill="#000"><path d="M181.7 171c8.2-11.3-3.3-22-10.9-26.6-2-1.5-.4-6.2 3.8-5.4 38.4 6.6 18.5 72.7-30.5 36.4-5.8-4.7 1.2-15 7.5-11l1 .7c7.1 5.5 20 15.5 29.1 6ZM104.5 56.5l-2 .3c-6 1-12 3.4-17.5 6.2a59.3 59.3 0 0 0-25.9 24c-.5 1.2.7 2.7 2 2 9-6.2 17.8-11.8 28.6-15a67.7 67.7 0 0 1 19.5-2.5c4.4.2 8.6.3 12.4-2.9 3-2.3 2.2-7 0-9.4-4.1-4.7-11.3-3.7-17.1-2.7ZM204.6 52.5l-1.4-.3a8.5 8.5 0 0 0-4.9.4 7.4 7.4 0 0 0-3.6 3.1 7 7 0 0 0-.8 5.9 7 7 0 0 0 2.6 4c1.2.9 2.9 1.5 4.6 1.7 7.8.9 15.4 2.6 22.9 5 3.5 1.2 6.8 2.7 10 4.3L237 78a45 45 0 0 0 9.4 3.6c.9-.3 1.1-.6 1.3-.8v-.1l.1-.1c.3-.3.6-.8.3-3-7.4-15.3-27.7-21.9-43.4-25.1ZM123.3 128c-3 1.8-6.3 1-8.9-1.1-1.6-1.3-2.8-3-4-4.6-1.5-1.9-2.9-3.8-5-5.1-3.2-2.2-7.5-2.3-11.2-1.7-5.6 1-10.4 3.6-15.3 6.2a86 86 0 0 1-8.3 4.2c-1.1.5-1.8-1-1.4-1.8a38 38 0 0 1 27-22.5 29 29 0 0 1 30.4 18.2c1.1 3-.7 6.7-3.3 8.2ZM242.6 115.4c.2 0 .5-.2.4-.5-3.2-10.3-15.1-14.7-25.2-13.8-6.2.5-11.9 2.8-16.6 7-4.5 4-8 11.4-4 16.9 4.3 5.6 12.8 3.8 13.3-3.6.4-4.8 8.6-7.8 12.8-8.5 6.5-1.2 13.2.2 19.3 2.5Z"/><path fill-rule="evenodd" clip-rule="evenodd" d="M176.1 195.5c11.6-.1 25.6-.3 35.6.3 3.6.2 5.3 5.3 5.6 7.8 2.3 22.4-15.6 40.4-35.4 47.3-18.4 6.5-42.7 7.7-59.2-4.3a50.2 50.2 0 0 1-16-20.6 56.8 56.8 0 0 1-4.3-15c-.6-3.3-1.3-7.3-.2-10.4 1.7-4.4 6-4.5 10.1-4.5h1l5-.2 12.8-.2 27.7-.2H176Zm-49.8 19a253 253 0 0 0 42.5 1.5c10-.4 36-6.5 36-9 0-2.7-1.1-5-2-5-4 .5-34.7.8-56.4 1a3011.2 3011.2 0 0 0-24.7.3c-1 3.2 1.7 10 4.6 11.1ZM82.3 146.6c-.3-2-2-3.2-4-2.2a7.5 7.5 0 0 0-2.6 2.2l.1-.2c0-.2 0-.4-.2-.4-4.4-.7-10.1 5.4-13.2 8.8l-.7.7a61.8 61.8 0 0 0-11 16c-3.5 7.5-7.2 18.9-2.5 26.6 6.6 10.9 20.5 2.7 25.7-4.8a39.9 39.9 0 0 0 7-21.5c0-2.2 0-4.4-.2-6.7 0-2-.2-4.2 0-6.3 0-1.8.4-3.6.8-5.3.5-2.3 1-4.6.8-6.9Zm-9.9 32.5c-1.5 5.8-4.6 12.5-10 15.6-2.9 1.7-7.1 2.3-8.8-1.1-3-6.5 1.3-16.4 3.9-22.2a63 63 0 0 1 17.2-23 29 29 0 0 0-1.6 11.2l.2 5.4c.2 4.7.3 9.5-.9 14.1ZM253.3 157.5A65.2 65.2 0 0 1 262 175c3 11.9-7.2 20.5-18.5 18-11.9-2.7-16.3-16.4-16-27.2 0-5 1-10 2.1-14.9l.4-2 .7-4.1c.3-2 .5-4 1-5.9-.5-1.5-.9-3-.8-4.6 0-2.5 2.6-3.8 4.7-2.7 3 1.5 4.7 4.3 6.3 7.2l1 1.8 3.6 6 3.5 6 3.2 5Zm-13 25.5c3.1 2.8 8.5 3.9 12 1.2 4.9-3.6.8-10-1.9-14.2l-.7-1.2a1574 1574 0 0 1-13-21.3l-.8 4.9-.7 3.6c-1.3 8.8-2.2 20.3 5.1 27Z"/></g></g><g transform="translate(279 400)"></g><g transform="translate(179 343)"></g><g transform="translate(203 303)"><path fill-rule="evenodd" clip-rule="evenodd" d="M367.1 98.3c-6.7 9-19.2 12-30.7 11-24.8-2.4-32.6-30.6-33.5-52.6 16.7 4.7-1.4-28.5 55.6-32 20-1.8 14.5 10.3 23.4 19.2-.2 18.6-3.3 38.8-14.8 54.4ZM249 77c-14.7 68.6-95 52.3-103.4-9.6 7.8-5.5 5.7-19 15.4-24 15.3-9.8 34.5-9.4 52-9.1 22.2 1.5 28.5 10.7 40 20.8-.6 6.7-2.2 14.7-4 21.9Zm150-63.8-2.4-.4a39 39 0 0 0-8.3-1.9C359.7 4.7 293.7 13.8 291 38c-9 3-17 .4-27.4.6-8-33.5-146.6-28.8-153.3-8.6-6.5-2-16-1.5-23.3-1.8-15.6-.3-31.3 1-46.6 4.4C11.6 37-27.5 42.5-7.6 78.3c3.5 3.5 9.3.7 9.5-4-6.7-17 8.5-19 20.1-24 29-10.4 58.6-11.8 88.5-8.6 2.3 2.7 5.7 5 9.3 6.2 20 3.3 9.5 18.2 22.2 20.3-2.3 51.9 60.6 80.2 97 46.1 14.6-14.2 18.1-35.3 21.5-54.3a5 5 0 0 0 3.6-2.7c4.3-4.3 7-8.2 15.4-9.4 8.5-1.2 15 1.2 16 1.9l.7 1.3c.4.7 1 1.2 1.5 1.7-8.4 51.6 31.7 84.2 72.2 57.5 17.5-16.6 21.3-41.9 22-64.5a6.8 6.8 0 0 0 3-7.7c-1-4.9 1.6-9 5.8-11.1 5.5-2.8 4.6-12.7-1.8-13.8Z" fill="#000"/></g></g></svg>